<svg id="Layer_1" data-name="Layer 1" xmlns="http://www.w3.org/2000/svg" xmlns:xlink="http://www.w3.org/1999/xlink" viewBox="0 0 500 500"><defs><linearGradient id="linear-gradient" x1="340.02" y1="402.07" x2="229.12" y2="214.08" gradientUnits="userSpaceOnUse"><stop offset="0.56" stop-color="#fff"/><stop offset="0.67" stop-color="#fdfdfd"/><stop offset="0.73" stop-color="#f4f4f4"/><stop offset="0.78" stop-color="#e7e7e7"/><stop offset="0.82" stop-color="#d3d3d3"/><stop offset="0.86" stop-color="#b9b9b9"/><stop offset="0.89" stop-color="#9a9a9a"/><stop offset="0.93" stop-color="#747474"/><stop offset="0.96" stop-color="#494949"/><stop offset="0.99" stop-color="#191919"/><stop offset="1"/></linearGradient><mask id="mask" x="161.18" y="169.49" width="244.79" height="245.31" maskUnits="userSpaceOnUse"><polygon points="165.91 250.53 303.55 169.49 382.98 209.72 405.97 330.51 263.9 414.8 161.18 364.08 165.91 250.53" fill="url(#linear-gradient)"/></mask><clipPath id="clip-path"><path d="M202.79,247.58l90.88-52.3s25.47,9.08,31.4,27.32L223.54,276.85Z" fill="none"/></clipPath></defs><g opacity="0.37"><path d="M216.4,484.88,16.21,369.3a9.28,9.28,0,0,1,0-16.08L263.14,210.65a9.29,9.29,0,0,1,9.29,0l211.36,122a9.28,9.28,0,0,1,0,16.08L248,484.88A31.63,31.63,0,0,1,216.4,484.88Z" fill="#a2a4b3"/></g><path d="M240.77,411.17v72.21l0,0a29.31,29.31,0,0,1-14.61-3.91L42.51,374.2a12.82,12.82,0,0,1-6.44-11.12V335.57a10.2,10.2,0,0,1,1.61-5.5l.45-.71Z" fill="none" stroke="#000" stroke-miterlimit="10" stroke-width="1.31"/><path d="M477.83,346.12a8.52,8.52,0,0,1-4.3,7.44L255.39,479.5a29.47,29.47,0,0,1-14.49,3.91l-.13,0V411.17l178.88-103.6,56.06,5.16a2.32,2.32,0,0,1,2.11,2.31v31.08Z" fill="none" stroke="#000" stroke-miterlimit="10" stroke-width="1.31"/><path d="M226.14,446.22,40.92,339.29a8.59,8.59,0,0,1,0-14.88L269.38,192.5a8.61,8.61,0,0,1,8.59,0L473.53,305.41a8.6,8.6,0,0,1,0,14.88L255.4,446.22A29.24,29.24,0,0,1,226.14,446.22Z" fill="#202124"/><path d="M89.4,343.84V150.41a9.45,9.45,0,0,1,4.69-8.16L318.93,11.79a6.7,6.7,0,0,1,7,.18h0a6.58,6.58,0,0,1,3,5.52V145L112.68,346.56l-11,6.34C95.57,355,89.4,352.33,89.4,343.84Z" fill="#c8cbde"/><path d="M116.48,332.43l10.28-5.93L125,314l-13.42,2.37-6.66-3.52v11.12C104.91,331.9,110.72,334.38,116.48,332.43Z" fill="#acafbf"/><path d="M329,16.73V213.91a13.5,13.5,0,0,1-6.74,11.69L103.84,351.67a4.91,4.91,0,0,1-7.36-4.26V154a10.11,10.11,0,0,1,5-8.74l225-129.89A1.63,1.63,0,0,1,329,16.73Z" fill="#202124"/><path d="M103.84,351.67,322.21,225.6A13.5,13.5,0,0,0,329,213.91V201.3L96.48,335.76v11.65A4.91,4.91,0,0,0,103.84,351.67Z" fill="#a2a4b3" opacity="0.81"/><path d="M118.45,179.49V327.18c0,1.87,2.1,5.88,7.42,4.84L321.29,214.29a5.07,5.07,0,0,0,2.54-4.4l4.65-149c0-1-3.54-3.34-6.56-2.53L121.6,174A6.31,6.31,0,0,0,118.45,179.49Z" fill="#c8cbde"/><path d="M321.92,58.38,121.6,174a6.31,6.31,0,0,0-2.86,3.62l5.27,2L328.44,62.18l0-1.27C328.48,59.93,324.94,57.57,321.92,58.38Z" fill="#fff"/><path d="M123.57,181.9V329.59a2.43,2.43,0,0,0,3.65,2.11l199.19-115a5.09,5.09,0,0,0,2.54-4.4V61.89a1.27,1.27,0,0,0-1.91-1.1L126.72,176.44A6.31,6.31,0,0,0,123.57,181.9Z" fill="#e6e9ff"/><path d="M323.58,211.25V146.81a1.49,1.49,0,0,0-2.24-1.29L134.56,253.45a7.4,7.4,0,0,0-3.7,6.41v61.8Z" fill="none" stroke="#e95c00" stroke-miterlimit="10" stroke-width="1.39"/><path d="M177.45,245.46v18.26a1,1,0,0,0,1.49.86l116.28-68.72a2.07,2.07,0,0,0,1-1.8V174.68a.52.52,0,0,0-.78-.45l-116.74,69A2.57,2.57,0,0,0,177.45,245.46Z" fill="#e95c00"/><path d="M295.24,174.38l-116.5,68.84a2.57,2.57,0,0,0-1.29,2.24V259.9a1.14,1.14,0,0,0,.46-.13L294.2,191a2.08,2.08,0,0,0,1-1.8Z" fill="#202124"/><ellipse cx="228.36" cy="147.37" rx="6.59" ry="3.73" transform="translate(-26.68 241.28) rotate(-53.05)" fill="#202124"/><path d="M228.36,133.12A128,128,0,0,0,207.28,148v11.73l.59-.34c2.84-1.64,5.14-5.27,5.14-8.11v-2.14a132.93,132.93,0,0,1,15.35-10.31,103.78,103.78,0,0,1,15.34-7.39V151l-15.34,17.69-15.35,0v-2.08c0-3.16-2.57-4.25-5.73-2.42h0v11.13l21.08-.05L249.44,151V123.67S241.27,125.66,228.36,133.12Z" fill="#202124"/><path d="M219.4,163.93l9,0,9-10.33c-.69-2-2.91-2.5-5.53-1l-6.86,4A12.6,12.6,0,0,0,219.4,163.93Z" fill="#202124"/><g mask="url(#mask)"><path d="M249.05,388.66l111.36-64.59v-3.34l-93.86-57.37-86.73-20.85v4.19s24.89,17.49,28,39.57c3.64,26.27,1.08,34.37,8,60.84S249.05,388.66,249.05,388.66Z" fill="#d5d8ed"/><path d="M179.82,242.51l104.85-61.89s25.36,8.63,32.47,36.27,4.52,41.84,12.27,66.38,31,37.46,31,37.46L252.19,383.38s-30-12.68-34.51-57.68S209.53,260,179.82,242.51Z" fill="#fff"/><g clip-path="url(#clip-path)"><path d="M199.6,243.09,213,235.18l2.35,2.8L206,243.5l3.59,4.27,8.83-5.22,2.35,2.8-8.82,5.23,4,4.72,9.8-5.81,2.35,2.81-13.91,8.24s-1.59-4.09-7-10.24C202.33,244.9,199.6,243.09,199.6,243.09Z" fill="#c93900"/><path d="M216.81,232.9l6.67-4c3.69-2.18,8.08-3.16,11.36.75,2.1,2.51,2,5.3-.49,7.35l11.56,4.68-4.13,2.44-10.64-4.74-2.5,1.48,6.19,7.38-3.42,2a58.57,58.57,0,0,0-6.76-10.13A40.26,40.26,0,0,0,216.81,232.9Zm12.27,3.77c1.92-1.14,4-2.62,2.15-4.88-1.73-2.07-4-1.06-5.82,0l-3,1.76,4,4.72Z" fill="#c93900"/><path d="M273.61,199.25l6.68-4c3.69-2.18,8.07-3.16,11.36.75,2.1,2.51,2.05,5.3-.49,7.36l11.56,4.67-4.13,2.44L288,205.77l-2.5,1.48,6.19,7.38-3.42,2a58.72,58.72,0,0,0-6.76-10.12A40,40,0,0,0,273.61,199.25ZM285.88,203c1.93-1.14,4.06-2.62,2.16-4.88-1.73-2.07-4.05-1.06-5.82,0l-3,1.75,4,4.72Z" fill="#c93900"/><path d="M233.9,222.77l6.68-4c3.69-2.18,8.08-3.16,11.36.75,2.1,2.51,2.05,5.3-.49,7.36L263,231.59,258.88,234l-10.64-4.74-2.5,1.48,6.19,7.38-3.42,2a86.3,86.3,0,0,0-7.14-10.29A36.7,36.7,0,0,0,233.9,222.77Zm12.28,3.77c1.92-1.14,4-2.62,2.15-4.88-1.73-2.07-4.05-1.06-5.82,0l-3,1.75,4,4.72Z" fill="#c93900"/><path d="M259.75,206.8a13.52,13.52,0,0,1,17.89,3.06c4.56,5.43,3.38,11.58-2.54,15.23A13.68,13.68,0,0,1,257.34,222C252.65,216.45,253.83,210.3,259.75,206.8Zm13,15.47c4-2.37,4.31-6.68,1.2-10.39a9.3,9.3,0,0,0-11.85-2.3c-4,2.35-4.28,6.66-1.37,10.13C263.87,223.42,268.82,224.62,272.78,222.27Z" fill="#c93900"/></g><polygon points="198.1 242.11 286.33 192.16 289.59 193.74 201.33 243.99 198.1 242.11" fill="#c93900"/><path d="M295.66,315.29l15.81-9.15-27.24-18.71L266.75,332l16.12-9.33a77.74,77.74,0,0,0,11.15,28l10.89-6.31a56.74,56.74,0,0,1-4.85-11.05A137.59,137.59,0,0,1,295.66,315.29Z" fill="#e95c00"/></g><path d="M250.91,283.09c1.45,8.52-4.57,17.07-11.81,21.29-8.26,4.81-13.57,4.1-15.6-3l-.15-.5,7.4-4.31.15.5c1.1,3,3.34,4,6.87,1.93a10.57,10.57,0,0,0,5.3-11.09c-.75-4.36-3.62-6-7.64-3.61a10.65,10.65,0,0,0-5.33,7.73l-6.87,4-1.14-23.53,23.06-13.43,1,5.82-17,9.9.39,11.22,1.39-3.6a18.36,18.36,0,0,1,5.54-4.82C244.24,273.1,249.59,275.44,250.91,283.09Z" fill="#202124"/><path d="M283.61,257.17c2,11.65-.6,21.64-11.05,27.72s-15.75.69-17.74-10.95.6-21.64,11.11-27.76S281.6,245.41,283.61,257.17Zm-7.83,4.56c-1.62-9.49-4.4-12.62-8.9-10s-5.86,8.16-4.23,17.65,4.4,12.61,9,10S277.39,271.11,275.78,261.73Z" fill="#202124"/><path d="M316.92,237.25c2,11.65-.6,21.64-11.05,27.73s-15.74.69-17.74-11,.6-21.64,11.11-27.76S314.91,225.5,316.92,237.25Zm-7.82,4.56c-1.63-9.49-4.41-12.62-8.91-10S294.33,240,296,249.46s4.4,12.62,9,10S310.7,251.19,309.1,241.81Z" fill="#202124"/></svg>