<?xml version="1.0" encoding="utf-8"?>
<!-- Generator: Adobe Illustrator 26.0.3, SVG Export Plug-In . SVG Version: 6.00 Build 0)  -->
<svg version="1.1" id="Layer_1" xmlns="http://www.w3.org/2000/svg" xmlns:xlink="http://www.w3.org/1999/xlink" x="0px" y="0px"
	 viewBox="0 0 145.9 145.9" style="enable-background:new 0 0 145.9 145.9;" xml:space="preserve">
<style type="text/css">
	.st0{fill:url(#SVGID_1_);}
	.st1{fill:#FFFFFF;}
	.st2{fill:url(#SVGID_00000069393433993202798660000008452133479242943883_);}
	.st3{fill:#AAADB5;}
</style>
<g>
	
		<linearGradient id="SVGID_1_" gradientUnits="userSpaceOnUse" x1="-14.8719" y1="173.9735" x2="246.2894" y2="-120.22" gradientTransform="matrix(1 0 0 -1 0 148)">
		<stop  offset="0.1061" style="stop-color:#FF593F"/>
		<stop  offset="1" style="stop-color:#333333"/>
	</linearGradient>
	<circle class="st0" cx="72.9" cy="72.9" r="70.8"/>
	<circle class="st1" cx="72.9" cy="72.9" r="54.2"/>
	
		<linearGradient id="SVGID_00000015332977444106617960000018270622766479214237_" gradientUnits="userSpaceOnUse" x1="30.0549" y1="125.0297" x2="161.1517" y2="-27.7445" gradientTransform="matrix(1 0 0 -1 0 148)">
		<stop  offset="0.1061" style="stop-color:#FF593F"/>
		<stop  offset="1" style="stop-color:#333333"/>
	</linearGradient>
	<circle style="fill:url(#SVGID_00000015332977444106617960000018270622766479214237_);" cx="72.9" cy="72.9" r="31.6"/>
	<circle class="st1" cx="72.9" cy="72.9" r="26.3"/>
	<g>
		<path class="st3" d="M124.2,71.3c-0.9-0.1-1.7,0.5-1.8,1.4c-0.1,0.9,0.5,1.7,1.4,1.8c0.1,0,0.3,0,0.4,0l9.9-1.6L124.2,71.3z"/>
		<path class="st3" d="M73.2,23.5c0.9-0.1,1.5-1,1.3-1.8l-1.6-9.9l-1.6,9.9c-0.1,0.9,0.5,1.7,1.4,1.8C72.9,23.5,73,23.5,73.2,23.5z"
			/>
		<path class="st3" d="M72.7,122.4c-0.9,0.1-1.5,1-1.3,1.8l1.6,9.9l1.6-9.9c0.1-0.9-0.5-1.7-1.4-1.8C73,122.4,72.8,122.4,72.7,122.4
			z"/>
		<path class="st3" d="M21.6,71.3l-9.9,1.6l9.9,1.6c0.9,0.1,1.7-0.5,1.8-1.4c0.1-0.9-0.5-1.7-1.4-1.8C21.9,71.3,21.8,71.3,21.6,71.3
			z"/>
		<path class="st3" d="M37.8,35.5l-8.1-5.9l5.9,8.1c0.5,0.7,1.5,0.9,2.2,0.3s0.9-1.5,0.3-2.2C38,35.8,37.9,35.6,37.8,35.5z"/>
		<path class="st3" d="M108.1,38.2c0.7,0.5,1.7,0.4,2.2-0.4l0,0l5.9-8.1l-8.1,5.9c-0.7,0.5-0.9,1.5-0.3,2.3
			C107.8,37.9,107.9,38.1,108.1,38.2z"/>
		<path class="st3" d="M107.7,108.1c-0.5,0.7-0.4,1.7,0.4,2.2l0,0l8.1,5.9l-5.9-8.1c-0.5-0.7-1.5-0.9-2.3-0.3
			C107.9,107.8,107.8,107.9,107.7,108.1z"/>
		<path class="st3" d="M37.8,107.7c-0.7-0.5-1.7-0.4-2.2,0.4l0,0l-5.9,8.1l8.1-5.9c0.7-0.5,0.9-1.5,0.3-2.3
			C38,107.9,37.9,107.8,37.8,107.7z"/>
		<path class="st3" d="M72.6,36.5c3.5,0,4.4-1,4.4-5.1s-0.9-5.1-4.4-5.1s-4.4,1-4.4,5.1S69.1,36.5,72.6,36.5z M72.6,28.3
			c1.4,0,1.6,0.3,1.6,3.1s-0.2,3.1-1.6,3.1S71,34.2,71,31.4S71.2,28.3,72.6,28.3z"/>
		<path class="st3" d="M116.1,65.5v2.4h-6.6v2.4h9.9V68c-1.3,0-1.5-0.3-1.5-1.4v-1.1H116.1z"/>
		<path class="st3" d="M114.5,71.3c-4.1,0-5.1,0.9-5.1,4.4s1,4.4,5.1,4.4s5.1-0.9,5.1-4.4S118.6,71.3,114.5,71.3z M114.5,77.3
			c-2.8,0-3.1-0.2-3.1-1.6s0.3-1.6,3.1-1.6s3.1,0.2,3.1,1.6S117.2,77.3,114.5,77.3L114.5,77.3z"/>
		<path class="st3" d="M77.5,117.4c-1.3,0-1.4-0.1-1.4-0.9c0-0.6,0.2-0.9,1-1.6l4.4-3.7v-1.8h-8.2v2.3h3.9l-2.8,2.4
			c-1,0.9-0.9,1.4-0.9,2.9c-0.1,2,0.7,2.6,4,2.6s4.1-0.7,4.1-3.4h-2.8C78.8,117.3,78.6,117.4,77.5,117.4z"/>
		<path class="st3" d="M72.3,114.5c0-4.1-0.9-5.1-4.4-5.1s-4.4,1-4.4,5.1s0.9,5.1,4.4,5.1S72.3,118.6,72.3,114.5z M68,117.6
			c-1.4,0-1.6-0.3-1.6-3.1s0.2-3.1,1.6-3.1s1.6,0.3,1.6,3.1S69.4,117.6,68,117.6z"/>
		<path class="st3" d="M29.3,77.3c0.8,0,1,0.3,1,1.7v1.6h2V79c0-1.7,0.2-2,1.1-2s1.1,0.3,1.1,2c0,1.5-0.1,1.7-1,1.7v2.6
			c2.4,0,3-0.9,3-4.3s-0.5-4.4-2.7-4.4c-1.5,0-2.3,0.6-2.5,1.8c-0.2-1-0.9-1.5-2.4-1.5c-2.1,0-2.7,0.8-2.7,4.1s0.6,4.1,2.9,4.1v-2.4
			c-0.7,0-0.8-0.3-0.8-1.7S28.5,77.3,29.3,77.3z"/>
		<path class="st3" d="M31.4,73.5c4.1,0,5.1-0.9,5.1-4.4s-1-4.4-5.1-4.4s-5.1,0.9-5.1,4.4S27.3,73.5,31.4,73.5z M31.4,67.5
			c2.8,0,3.1,0.2,3.1,1.6s-0.3,1.6-3.1,1.6s-3.1-0.2-3.1-1.6S28.6,67.6,31.4,67.5L31.4,67.5z"/>
	</g>
</g>
</svg>
