<?xml version="1.0" encoding="UTF-8"?>
<svg id="Layer_1" data-name="Layer 1" xmlns="http://www.w3.org/2000/svg" viewBox="0 0 400 400">
  <defs>
    <style>
      .cls-1 {
        fill: #f3f5fb;
      }

      .cls-2 {
        fill: #fff;
      }

      .cls-3 {
        fill: #e75f24;
      }

      .cls-4 {
        fill: #d6d8e8;
      }

      .cls-5 {
        fill: #c8cade;
      }

      .cls-6 {
        fill: #202224;
      }
    </style>
  </defs>
  <path class="cls-1" d="m13.72,47.5v86.14c139.54,0,252.65,113.11,252.65,252.64h86.14c18.65,0,33.77-15.12,33.77-33.77V47.5c0-18.65-15.12-33.77-33.77-33.77H47.5c-18.66,0-33.79,15.12-33.79,33.77Z"/>
  <rect class="cls-4" x="101.99" y="150.43" width="208.23" height="138.25" rx="17.95" ry="17.95"/>
  <polygon class="cls-5" points="157.99 209.31 101.99 265.62 101.99 168.34 157.99 209.31"/>
  <polygon class="cls-5" points="310.23 168.34 310.23 262.27 256.15 207.91 310.23 168.34"/>
  <path class="cls-6" d="m222.24,86.61c-9.61-7.03-22.66-7.03-32.27,0l-81.83,59.88c-3.87,2.83-6.15,7.33-6.15,12.12v10.27h.73l87.25,63.82c9.61,7.03,22.66,7.03,32.27,0l87.25-63.82h.73v-10.28c0-4.79-2.29-9.3-6.15-12.12l-81.83-59.86Z"/>
  <path class="cls-6" d="m129.34,130.98v57.36l-26.61-19.46h-.73v-10.27c0-4.79,2.29-9.3,6.15-12.13l21.19-15.51Z"/>
  <path class="cls-6" d="m245.8,103.84h-79.37l23.55-17.23c9.61-7.03,22.66-7.03,32.27,0l23.55,17.23Z"/>
  <path class="cls-6" d="m310.23,158.59v10.3h-.73l-24.68,18.05v-54.56l19.27,14.09c3.87,2.83,6.15,7.33,6.15,12.13Z"/>
  <circle class="cls-1" cx="90.16" cy="315.18" r="70.34"/>
  <circle class="cls-1" cx="90.16" cy="315.18" r="63.77"/>
  <path class="cls-3" d="m62.85,315.18c0,15.05,12.26,27.31,27.32,27.31s27.31-12.26,27.31-27.31c0-15.06-12.26-27.32-27.31-27.32s-27.32,12.26-27.32,27.32Zm8.67-.01c0-1.43,1.17-2.6,2.61-2.6h13.43s0-13.44,0-13.44c0-1.43,1.17-2.6,2.61-2.6s2.6,1.17,2.6,2.6v13.44s13.44,0,13.44,0c1.43,0,2.6,1.17,2.6,2.6,0,1.44-1.17,2.61-2.6,2.61h-13.44s0,13.44,0,13.44c0,1.43-1.17,2.6-2.6,2.6s-2.61-1.17-2.61-2.6v-13.44s-13.43,0-13.43,0c-1.44,0-2.61-1.17-2.61-2.61Z"/>
  <path class="cls-2" d="m284.81,110.13v76.8l-62.56,45.77c-9.61,7.03-22.66,7.03-32.27,0l-60.64-44.36v-78.21c0-3.48,2.82-6.29,6.29-6.29h142.89c3.48,0,6.29,2.82,6.29,6.29Z"/>
  <rect class="cls-1" x="145.46" y="122.22" width="122.36" height="8.76"/>
  <rect class="cls-1" x="145.46" y="142.49" width="122.36" height="8.76"/>
  <path class="cls-1" d="m267.82,162.77h-122.36v37.37l44.52,32.57c9.61,7.03,22.66,7.03,32.27,0l45.57-33.34v-36.6Z"/>
</svg>