<?xml version="1.0" encoding="UTF-8"?>
<svg id="Layer_1" data-name="Layer 1" xmlns="http://www.w3.org/2000/svg" viewBox="0 0 400 400">
  <defs>
    <style>
      .cls-1 {
        fill: #f3f5fb;
      }

      .cls-2 {
        fill: #fff;
      }

      .cls-3 {
        fill: #f15b44;
      }

      .cls-4 {
        fill: #d6d8e8;
      }

      .cls-5 {
        fill: #c8cade;
      }

      .cls-6 {
        fill: #202224;
      }

      .cls-7 {
        fill: none;
        stroke: #f3f5fb;
        stroke-linecap: round;
        stroke-linejoin: round;
        stroke-width: 4px;
      }
    </style>
  </defs>
  <g>
    <path class="cls-1" d="m13.72,47.5v86.14c139.54,0,252.65,113.11,252.65,252.64h86.14c18.65,0,33.77-15.12,33.77-33.77V47.5c0-18.65-15.12-33.77-33.77-33.77H47.5c-18.66,0-33.79,15.12-33.79,33.77Z"/>
    <rect class="cls-4" x="101.99" y="150.43" width="208.23" height="138.25" rx="17.95" ry="17.95"/>
    <polygon class="cls-5" points="157.99 209.31 101.99 265.62 101.99 168.34 157.99 209.31"/>
    <polygon class="cls-5" points="310.23 168.34 310.23 262.27 256.15 207.91 310.23 168.34"/>
    <path class="cls-6" d="m222.24,86.61c-9.61-7.03-22.66-7.03-32.27,0l-81.83,59.88c-3.87,2.83-6.15,7.33-6.15,12.12v10.27h.73l87.25,63.82c9.61,7.03,22.66,7.03,32.27,0l87.25-63.82h.73v-10.28c0-4.79-2.29-9.3-6.15-12.12l-81.83-59.86Z"/>
    <path class="cls-6" d="m129.34,130.98v57.36l-26.61-19.46h-.73v-10.27c0-4.79,2.29-9.3,6.15-12.13l21.19-15.51Z"/>
    <path class="cls-6" d="m245.8,103.84h-79.37l23.55-17.23c9.61-7.03,22.66-7.03,32.27,0l23.55,17.23Z"/>
    <path class="cls-6" d="m310.23,158.59v10.3h-.73l-24.68,18.05v-54.56l19.27,14.09c3.87,2.83,6.15,7.33,6.15,12.13Z"/>
    <circle class="cls-1" cx="90.16" cy="315.18" r="70.34"/>
    <circle class="cls-1" cx="90.16" cy="315.18" r="63.77"/>
    <path class="cls-2" d="m284.81,110.13v76.8l-62.56,45.77c-9.61,7.03-22.66,7.03-32.27,0l-60.64-44.36v-78.21c0-3.48,2.82-6.29,6.29-6.29h142.89c3.48,0,6.29,2.82,6.29,6.29Z"/>
    <g>
      <path class="cls-4" d="m252.77,177.66h-91.34c-8.46,0-15.3-6.84-15.3-15.3h0c0-8.46,6.84-15.3,15.3-15.3h91.28c8.46,0,15.3,6.84,15.3,15.3h0c0,8.46-6.84,15.3-15.24,15.3Z"/>
      <g>
        <polygon class="cls-2" points="167.05 161.26 171.81 155.58 167.81 153.26 165.2 160.16 165.08 160.16 162.65 153.26 158.71 155.58 163.4 161.26 163.4 161.37 156.45 159.92 156.45 164.44 163.46 163.17 163.52 163.29 158.77 168.85 162.59 171.11 165.14 164.27 165.26 164.27 167.87 171.11 171.81 168.85 167 163.34 167 163.23 174.18 164.44 174.18 159.92 167.05 161.37 167.05 161.26"/>
        <polygon class="cls-2" points="195.45 161.26 200.2 155.58 196.21 153.26 193.6 160.16 193.48 160.16 191.05 153.26 187.11 155.58 191.8 161.26 191.8 161.37 184.85 159.92 184.85 164.44 191.86 163.17 191.92 163.29 187.16 168.85 190.99 171.11 193.54 164.27 193.66 164.27 196.26 171.11 200.2 168.85 195.39 163.34 195.39 163.23 202.58 164.44 202.58 159.92 195.45 161.37 195.45 161.26"/>
        <polygon class="cls-2" points="223.91 161.26 228.66 155.58 224.66 153.26 222.05 160.16 221.94 160.16 219.5 153.26 215.56 155.58 220.26 161.26 220.26 161.37 213.3 159.92 213.3 164.44 220.31 163.17 220.37 163.29 215.62 168.85 219.45 171.11 222 164.27 222.11 164.27 224.72 171.11 228.66 168.85 223.85 163.34 223.85 163.23 231.04 164.44 231.04 159.92 223.91 161.37 223.91 161.26"/>
        <polygon class="cls-2" points="259.43 164.44 259.43 159.92 252.31 161.37 252.31 161.26 257.06 155.58 253.06 153.26 250.45 160.16 250.34 160.16 247.9 153.26 243.96 155.58 248.65 161.26 248.65 161.37 241.7 159.92 241.7 164.44 248.71 163.17 248.77 163.29 244.02 168.85 247.84 171.11 250.39 164.27 250.51 164.27 253.12 171.11 257.06 168.85 252.25 163.34 252.25 163.23 259.43 164.44"/>
      </g>
    </g>
  </g>
  <path class="cls-3" d="m120.24,294.32c-12.99-2.33-18.35-4.05-30.07-9.35-11.72,5.29-17.09,7.02-30.07,9.35-2.35,37.29,27.84,50.16,30.07,51.06,2.24-.9,32.43-13.78,30.07-51.06Z"/>
  <path class="cls-7" d="m102.78,303.56l-16.09,18.59-7.14-7"/>
</svg>