<svg id="Layer_1" data-name="Layer 1" xmlns="http://www.w3.org/2000/svg" xmlns:xlink="http://www.w3.org/1999/xlink" viewBox="0 0 500 500"><defs><linearGradient id="linear-gradient" x1="122.43" y1="-20.98" x2="178.22" y2="283.32" gradientUnits="userSpaceOnUse"><stop offset="0.56" stop-color="#fff"/><stop offset="0.62" stop-color="#fbfbfb"/><stop offset="0.68" stop-color="#f1f1f1"/><stop offset="0.73" stop-color="#dedede"/><stop offset="0.79" stop-color="#c5c5c5"/><stop offset="0.84" stop-color="#a4a4a4"/><stop offset="0.89" stop-color="#7b7b7b"/><stop offset="0.94" stop-color="#4b4b4b"/><stop offset="0.98" stop-color="#141414"/><stop offset="1"/></linearGradient><mask id="mask" x="-48.35" y="-39.18" width="368.23" height="327.43" maskUnits="userSpaceOnUse"><polygon points="103.4 288.25 293.76 183.14 319.87 4.71 226.41 -39.18 -48.35 98.77 82.53 288.25 103.4 288.25" fill="url(#linear-gradient)"/></mask></defs><g opacity="0.37"><path d="M216.4,479.71,16.21,364.12a9.28,9.28,0,0,1,0-16.08L263.14,205.48a9.29,9.29,0,0,1,9.29,0l211.36,122a9.28,9.28,0,0,1,0,16.08L248,479.71A31.63,31.63,0,0,1,216.4,479.71Z" fill="#a2a4b3"/></g><path d="M240.77,406v72.22l0,0a29.22,29.22,0,0,1-14.61-3.92L42.51,369a12.84,12.84,0,0,1-6.44-11.12V288.18a2.28,2.28,0,0,1,3.44-2l63.8,38Z" fill="none" stroke="#000" stroke-miterlimit="10" stroke-width="1.31" opacity="0.81"/><path d="M477.83,341a8.51,8.51,0,0,1-4.3,7.43L255.39,474.32a29.37,29.37,0,0,1-14.49,3.92l-.13,0V406l178.88-103.6,56.23-32.57a1.29,1.29,0,0,1,1.94,1.11v70Z" fill="none" stroke="#000" stroke-miterlimit="10" stroke-width="1.31" opacity="0.81"/><path d="M226.14,402.08,40.92,295.14a8.59,8.59,0,0,1,0-14.88l228.46-131.9a8.56,8.56,0,0,1,8.59,0l195.56,112.9a8.6,8.6,0,0,1,0,14.88L255.4,402.08A29.29,29.29,0,0,1,226.14,402.08Z" fill="#202124"/><g opacity="0.37"><path d="M162,340.58a13,13,0,0,1-6.53-1.75l-33.91-21.34a5.7,5.7,0,0,1,0-9.86L326.22,189.44,369,215.92a4.12,4.12,0,0,1,0,7.14L168.48,338.83A13,13,0,0,1,162,340.58Z" fill="#a2a4b3"/></g><path d="M53.24,381v.21C53.17,381.18,53.17,381.12,53.24,381Z" fill="#a2a4b3"/><path d="M468.62,364.38h0v-.54A5,5,0,0,1,468.62,364.38Z" fill="#a2a4b3"/><path d="M155,319.51l185.65-103.6c4.3-2.48,3.76-6.81-1.2-9.68h0c-5-2.86-12.46-3.17-16.76-.69L137,309.14c-4.29,2.48-3.75,6.81,1.21,9.68h0C143.16,321.68,150.66,322,155,319.51Z" fill="#e95c00"/><path d="M339.41,212.25c-5-2.86-12.46-3.17-16.76-.69L137,315.16a7.34,7.34,0,0,0-1.66,1.31,10.25,10.25,0,0,0,2.87,2.35h0c5,2.86,12.46,3.17,16.76.69l185.65-103.6a7.14,7.14,0,0,0,1.67-1.31A10.25,10.25,0,0,0,339.41,212.25Z" fill="#202124"/><g opacity="0.37"><path d="M108,308.77a13.08,13.08,0,0,1-6.52-1.75L67.53,285.67a5.69,5.69,0,0,1,0-9.86l204.7-118.19L315,184.1a4.13,4.13,0,0,1,0,7.14L114.49,307A13.12,13.12,0,0,1,108,308.77Z" fill="#a2a4b3"/></g><path d="M101,287.69l185.66-103.6c4.29-2.48,3.76-6.81-1.2-9.68h0c-5-2.86-12.47-3.17-16.76-.69L83,277.32c-4.3,2.48-3.76,6.81,1.2,9.68h0C89.17,289.86,96.67,290.17,101,287.69Z" fill="#e95c00"/><path d="M285.43,180.44c-5-2.87-12.47-3.18-16.76-.7L83,283.35a6.85,6.85,0,0,0-1.66,1.3A10.19,10.19,0,0,0,84.21,287h0c5,2.86,12.46,3.17,16.76.69l185.66-103.6a6.82,6.82,0,0,0,1.66-1.31A10.5,10.5,0,0,0,285.43,180.44Z" fill="#202124"/><g mask="url(#mask)"><path d="M90.18,275.83V128.58c0-3.32.36-7.07,2.77-9.34C103.11,109.69,239.59,32.17,266.32,17a7.33,7.33,0,0,1,9.63,2.1A15.54,15.54,0,0,1,278.74,28V119.3L108.51,278l-8.64,5C95,284.59,90.18,282.51,90.18,275.83Z" fill="#c8cbde"/><path d="M278.74,24.29V173.56a10.65,10.65,0,0,1-5.31,9.2L101.55,282a3.87,3.87,0,0,1-5.8-3.35V122.8c0-2.84,178.62-105.59,178.62-105.59C277.62,18.84,278.74,20.65,278.74,24.29Z" fill="#e6e9ff"/><path d="M101.55,282l2.67-1.55,72-104.37L95.75,126.36V278.64A3.87,3.87,0,0,0,101.55,282Z" fill="#f2f4ff"/><path d="M273.43,182.76a10.7,10.7,0,0,0,4-4.14L218.7,152.15l-42.47,23.92-72,104.37Z" fill="#dbddf2"/><path d="M278.74,29.9l-60,122.25,58.74,26.47h0a10.61,10.61,0,0,0,1.3-5.06Z" fill="#c8cbde"/></g><path d="M265.76,365.28a12.32,12.32,0,0,0-5.51-1.54h-.07a1.46,1.46,0,0,0-.73.2l-6.35,3.66a1.48,1.48,0,0,0-.72,1.49,5.61,5.61,0,0,0,3,3.86,12.65,12.65,0,0,0,6.14,1.55,9.77,9.77,0,0,0,4.89-1.16,4.26,4.26,0,0,0,2.39-3.67C268.84,368,267.71,366.4,265.76,365.28Z" fill="#c8cbde"/><path d="M272.56,355a1.43,1.43,0,0,0-1.51-1c-.1,0-9.9.57-24.59-7.92-7.8-4.49-19.23-4.94-26-1-3.22,1.86-5,4.5-5,7.44,0,3.43,2.46,6.82,6.75,9.29,13.8,8,13.34,13.09,13.34,13.09a1.47,1.47,0,0,0,.56,1.51,1.46,1.46,0,0,0,1.61.09l34.19-19.74A1.47,1.47,0,0,0,272.56,355Zm-34.45,17.81c-.92-2.82-4.12-7.63-14.45-13.6-3.35-1.93-5.27-4.39-5.27-6.74,0-1.87,1.21-3.56,3.51-4.88a20.19,20.19,0,0,1,9.93-2.28A27.06,27.06,0,0,1,245,348.64c9.29,5.37,16.7,7.3,21.26,8Z" fill="#c8cbde"/><path d="M256.15,371.12c2.83,1.63,7.11,1.81,9.56.4s2.14-3.89-.69-5.52a10.8,10.8,0,0,0-4.84-1.34l-6.34,3.66A4.19,4.19,0,0,0,256.15,371.12Z" fill="#c8cbde"/><path id="Path_54" data-name="Path 54" d="M222.92,360c15.36,8.87,14.05,14.69,14.05,14.69l34.19-19.74s-10.09.76-25.44-8.11c-7.27-4.19-18.26-4.65-24.56-1s-5.5,10,1.76,14.17" fill="#c8cbde"/><g opacity="0.65"><path d="M265.71,369.67c-2.44,1.41-6.73,1.23-9.56-.4a5.91,5.91,0,0,1-1.63-1.33l-.68.39a4.17,4.17,0,0,0,2.31,2.8c2.83,1.63,7.12,1.81,9.56.39,1.49-.87,2-2.12,1.44-3.34A3.29,3.29,0,0,1,265.71,369.67Z" fill="#55565e"/><path d="M271.16,354.93a11.19,11.19,0,0,1-1.15,0h0l-31.06,17.92s1.44-6.39-15.42-16.13c-3.37-1.94-5.48-4.31-6.26-6.71-1.21,3.31.75,7.13,5.67,10,15.34,8.86,14,14.68,14,14.68Z" fill="#55565e"/></g><path d="M296.42,346.31a46.9,46.9,0,0,1-22.77-5.7c-6.52-3.77-10.27-8.87-10.26-14,0-4.33,2.65-8.25,7.47-11,4.56-2.64,10.83-4.09,17.64-4.09a46.9,46.9,0,0,1,22.77,5.7c6.52,3.77,10.27,8.87,10.27,14,0,4.34-2.66,8.26-7.48,11-4.56,2.64-10.83,4.09-17.64,4.09Z" fill="#a2a4b3"/><ellipse cx="292.46" cy="328.9" rx="15.69" ry="27.74" transform="translate(-69.4 579.42) rotate(-83.05)" fill="#e95c00"/><path d="M313.32,341c-10,5.76-27.41,5-38.94-1.62-6.89-4-10.1-9.19-9.44-14,.52,4.05,3.7,8.22,9.44,11.53,11.53,6.64,29,7.36,38.94,1.61,4-2.32,6.21-5.32,6.66-8.53C320.52,334.07,318.34,338.05,313.32,341Z" fill="#c23a00"/><polyline points="297.85 319.66 302.23 335.84 288.47 333.72" fill="none" stroke="#fff" stroke-linecap="round" stroke-linejoin="round" stroke-width="2.74"/><path d="M95.75,126.36s65.1,40.77,80.48,49.71,30.71,0,42.47-23.92l60-122.25s3.34-9.07-4.37-12.69L95.75,122.8Z" fill="#e6e9ff"/></svg>