<svg id="Layer_1" data-name="Layer 1" xmlns="http://www.w3.org/2000/svg" xmlns:xlink="http://www.w3.org/1999/xlink" viewBox="0 0 500 500"><defs><linearGradient id="linear-gradient" x1="161.18" y1="19.25" x2="259.23" y2="283.75" gradientUnits="userSpaceOnUse"><stop offset="0.56" stop-color="#fff"/><stop offset="0.62" stop-color="#fbfbfb"/><stop offset="0.68" stop-color="#f1f1f1"/><stop offset="0.73" stop-color="#dedede"/><stop offset="0.79" stop-color="#c5c5c5"/><stop offset="0.84" stop-color="#a4a4a4"/><stop offset="0.89" stop-color="#7b7b7b"/><stop offset="0.94" stop-color="#4b4b4b"/><stop offset="0.98" stop-color="#141414"/><stop offset="1"/></linearGradient><mask id="mask" x="2.01" y="-4.4" width="368.23" height="327.43" maskUnits="userSpaceOnUse"><polygon points="153.76 323.03 344.12 217.92 370.24 39.5 276.77 -4.4 2.01 133.56 132.9 323.03 153.76 323.03" fill="url(#linear-gradient)"/></mask></defs><g opacity="0.37"><path d="M216.4,479.68,16.21,364.1a9.28,9.28,0,0,1,0-16.08L263.14,205.46a9.29,9.29,0,0,1,9.29,0l211.36,122a9.28,9.28,0,0,1,0,16.08L248,479.68A31.63,31.63,0,0,1,216.4,479.68Z" fill="#a2a4b3"/></g><path d="M240.77,406v72.22l0,0a29.22,29.22,0,0,1-14.61-3.92L42.51,369a12.84,12.84,0,0,1-6.44-11.13V287.65a2,2,0,0,1,3-1.71l64.24,38.23Z" fill="none" stroke="#000" stroke-linecap="round" stroke-linejoin="round" stroke-width="1.31"/><path d="M477.83,340.92a8.51,8.51,0,0,1-4.3,7.44L255.39,474.3a29.37,29.37,0,0,1-14.49,3.92l-.13,0V406l178.88-103.6L475.56,270a1.51,1.51,0,0,1,2.26,1.3v69.64Z" fill="none" stroke="#000" stroke-miterlimit="10" stroke-width="1.31"/><path d="M226.14,402.05,40.92,295.12a8.59,8.59,0,0,1,0-14.88L269.38,148.33a8.61,8.61,0,0,1,8.59,0L473.53,261.24a8.6,8.6,0,0,1,0,14.88L255.4,402.05A29.24,29.24,0,0,1,226.14,402.05Z" fill="#202124"/><g opacity="0.37"><path d="M158,340.56a13,13,0,0,1-6.53-1.75l-33.91-21.34a5.7,5.7,0,0,1,0-9.86L322.24,189.42,365,215.89a4.13,4.13,0,0,1,0,7.15L164.5,338.81A13,13,0,0,1,158,340.56Z" fill="#a2a4b3"/></g><path d="M151,319.49l185.66-103.6c4.3-2.48,3.76-6.82-1.2-9.68h0c-5-2.86-12.47-3.18-16.76-.7L133,309.12c-4.3,2.48-3.76,6.81,1.2,9.67h0C139.17,321.66,146.68,322,151,319.49Z" fill="#e95c00"/><path d="M335.43,212.23c-5-2.86-12.47-3.17-16.76-.69L133,315.14a6.82,6.82,0,0,0-1.66,1.31,10,10,0,0,0,2.86,2.34h0c5,2.87,12.47,3.18,16.76.7l185.66-103.6a7.34,7.34,0,0,0,1.66-1.31A10.19,10.19,0,0,0,335.43,212.23Z" fill="#202124"/><g opacity="0.37"><path d="M104,308.74A13,13,0,0,1,97.45,307L63.54,285.65a5.7,5.7,0,0,1,0-9.86L268.25,157.6,311,184.08a4.12,4.12,0,0,1,0,7.14L110.51,307A13,13,0,0,1,104,308.74Z" fill="#a2a4b3"/></g><path d="M97,287.67l185.66-103.6c4.29-2.48,3.75-6.81-1.21-9.68h0c-5-2.86-12.46-3.17-16.76-.69L79,277.3c-4.29,2.48-3.75,6.81,1.21,9.68h0C85.19,289.84,92.69,290.15,97,287.67Z" fill="#e95c00"/><path d="M281.44,180.41c-5-2.86-12.46-3.17-16.76-.69L79,283.32a7.28,7.28,0,0,0-1.66,1.31A10.25,10.25,0,0,0,80.23,287h0c5,2.86,12.46,3.17,16.76.69l185.66-103.6a7.28,7.28,0,0,0,1.66-1.31A10.25,10.25,0,0,0,281.44,180.41Z" fill="#202124"/><path d="M53.24,381v.21C53.17,381.16,53.17,381.1,53.24,381Z" fill="#a2a4b3"/><path d="M468.62,364.36h0v-.54A4.87,4.87,0,0,1,468.62,364.36Z" fill="#a2a4b3"/><g mask="url(#mask)"><path d="M140.54,310.61V163.36a17,17,0,0,1,2.78-9.34C158.32,131,228,26.21,228,26.21a20.42,20.42,0,0,1,25.33-7.31l67.85,30.35h0a15.59,15.59,0,0,1,7.89,13.56v91.27L158.87,312.75l-8.64,5C145.4,319.38,140.54,317.29,140.54,310.61Z" fill="#c8cbde"/><path d="M329.1,59.07V208.34a10.61,10.61,0,0,1-5.31,9.2L151.91,316.77a3.87,3.87,0,0,1-5.8-3.35V161.14c0-2.83,93.29-138.56,93.29-138.56a14.83,14.83,0,0,1,18.89-4.94L323.8,50.48A9.6,9.6,0,0,1,329.1,59.07Z" fill="#e6e9ff"/><polygon points="189.68 122.76 189.68 269.19 285.54 213.85 285.54 66.19 189.68 122.76" fill="#fff"/><path d="M151.91,316.77l2.67-1.54,72-104.38-80.48-49.71V313.42A3.87,3.87,0,0,0,151.91,316.77Z" fill="#f2f4ff"/><path d="M323.79,217.54a10.56,10.56,0,0,0,4-4.14l-58.74-26.47-42.47,23.92-72,104.38Z" fill="#dbddf2"/><path d="M329.1,64.69l-60,122.24L327.8,213.4h0a10.61,10.61,0,0,0,1.3-5.06Z" fill="#c8cbde"/></g><path d="M258.54,369.48A12.44,12.44,0,0,0,253,368H253a1.49,1.49,0,0,0-.74.2l-6.35,3.66a1.49,1.49,0,0,0-.72,1.49,5.66,5.66,0,0,0,3,3.86,12.65,12.65,0,0,0,6.14,1.55,9.77,9.77,0,0,0,4.89-1.16,4.26,4.26,0,0,0,2.39-3.67C261.62,372.22,260.5,370.61,258.54,369.48Z" fill="#c8cbde"/><path d="M265.35,359.25a1.43,1.43,0,0,0-1.51-1c-.1,0-9.9.57-24.6-7.92-7.79-4.5-19.22-4.95-26-1-3.22,1.86-5,4.5-5,7.44,0,3.43,2.46,6.82,6.75,9.29,13.8,8,13.34,13.09,13.34,13.09a1.5,1.5,0,0,0,.57,1.51,1.47,1.47,0,0,0,.87.29,1.52,1.52,0,0,0,.74-.2L264.68,361A1.48,1.48,0,0,0,265.35,359.25ZM230.9,377.06c-.93-2.82-4.12-7.63-14.45-13.6-3.36-1.93-5.28-4.39-5.28-6.74,0-1.87,1.21-3.56,3.51-4.89a20.35,20.35,0,0,1,9.93-2.27,27.13,27.13,0,0,1,13.16,3.29c9.29,5.37,16.7,7.3,21.26,8Z" fill="#c8cbde"/><path d="M248.94,375.33c2.83,1.63,7.1,1.81,9.55.39s2.15-3.88-.68-5.51a10.84,10.84,0,0,0-4.84-1.34l-6.35,3.66A4.18,4.18,0,0,0,248.94,375.33Z" fill="#e95c00"/><path d="M258.49,375.73c-2.44,1.42-6.73,1.24-9.55-.4a4.2,4.2,0,0,1-2.32-2.79l.68-.39a6.16,6.16,0,0,0,1.64,1.33c2.82,1.63,7.11,1.81,9.55.4a3.32,3.32,0,0,0,1.45-1.49C260.45,373.61,260,374.86,258.49,375.73Z" fill="#c23a00"/><path id="Path_54" data-name="Path 54" d="M215.71,364.18c15.35,8.87,14,14.69,14,14.69l34.19-19.74s-10.08.76-25.44-8.11c-7.26-4.19-18.26-4.65-24.55-1s-5.51,10,1.76,14.18" fill="#e95c00"/><path d="M229.75,378.87s1.31-5.82-14-14.68c-4.91-2.85-6.87-6.66-5.67-10,.79,2.4,2.89,4.77,6.26,6.71,16.86,9.74,15.42,16.13,15.42,16.13l31.06-17.92h0c.76,0,1.15,0,1.15,0Z" fill="#c23a00"/><path d="M289.2,350.52a46.73,46.73,0,0,1-22.76-5.71c-6.53-3.76-10.27-8.86-10.27-14,0-4.33,2.65-8.25,7.47-11,4.57-2.63,10.84-4.08,17.65-4.08a46.83,46.83,0,0,1,22.76,5.7c6.53,3.77,10.27,8.87,10.27,14,0,4.34-2.66,8.26-7.47,11-4.57,2.63-10.83,4.09-17.65,4.09Z" fill="#a2a4b3"/><ellipse cx="285.24" cy="333.11" rx="15.69" ry="27.74" transform="translate(-79.93 575.95) rotate(-83.05)" fill="#c8cbde"/><g opacity="0.65"><path d="M306.1,345.16c-10,5.76-27.4,5-38.93-1.62-6.89-4-10.1-9.19-9.44-14,.51,4.05,3.69,8.22,9.44,11.53,11.53,6.64,29,7.36,38.93,1.61,4-2.32,6.22-5.32,6.66-8.53C313.31,338.28,311.13,342.26,306.1,345.16Z" fill="#55565e"/></g><polyline points="290.63 323.87 295.02 340.05 281.25 337.93" fill="none" stroke="#fff" stroke-linecap="round" stroke-linejoin="round" stroke-width="2.74"/></svg>