<svg id="Layer_1" data-name="Layer 1" xmlns="http://www.w3.org/2000/svg" xmlns:xlink="http://www.w3.org/1999/xlink" viewBox="0 0 1500 500"><defs><radialGradient id="radial-gradient" cx="1993.22" cy="2274.16" r="0.63" gradientTransform="matrix(-1453.22, -24.4, -117.83, 798.38, 3164929.8, -1767169.13)" gradientUnits="userSpaceOnUse"><stop offset="0" stop-color="#eaeffa"/><stop offset="0.4" stop-color="#f2f5fa" stop-opacity="0.77"/><stop offset="1" stop-color="#fafafa" stop-opacity="0.57"/></radialGradient><clipPath id="clip-path"><path id="Path_49" data-name="Path 49" d="M1503.84,502.89H-3.84V-2.89H1503.84Z" fill="none"/></clipPath></defs><path id="Path_49-2" data-name="Path 49" d="M1503.84,502.89H-3.84V-2.89H1503.84Z" fill="url(#radial-gradient)"/><g clip-path="url(#clip-path)"><g id="Group_41" data-name="Group 41" opacity="0.58"><line id="Line_1" data-name="Line 1" x1="820.54" y1="439.27" x2="796.17" y2="259.35" fill="none" stroke="#e9e9f4" stroke-miterlimit="10" stroke-width="2"/><line id="Line_2" data-name="Line 2" x1="633.72" y1="393.41" x2="795.21" y2="457.83" fill="none" stroke="#e9e9f4" stroke-miterlimit="10" stroke-width="2"/><line id="Line_3" data-name="Line 3" x1="74.92" y1="154.33" x2="131.41" y2="355.26" fill="none" stroke="#e9e9f4" stroke-miterlimit="10" stroke-width="2"/><line id="Line_4" data-name="Line 4" x1="301.89" y1="235.73" x2="88.02" y2="134.85" fill="none" stroke="#e9e9f4" stroke-miterlimit="10" stroke-width="2"/><line id="Line_5" data-name="Line 5" x1="357.3" y1="437.47" x2="326.3" y2="272.76" fill="none" stroke="#e9e9f4" stroke-miterlimit="10" stroke-width="2"/><line id="Line_6" data-name="Line 6" x1="353.77" y1="490.46" x2="325.18" y2="665.03" fill="none" stroke="#e9e9f4" stroke-miterlimit="10" stroke-width="2"/><line id="Line_7" data-name="Line 7" x1="348.48" y1="260.8" x2="584.98" y2="364.9" fill="none" stroke="#e9e9f4" stroke-miterlimit="10" stroke-width="2"/><line id="Line_8" data-name="Line 8" x1="343.7" y1="226.16" x2="500.94" y2="131.3" fill="none" stroke="#e9e9f4" stroke-miterlimit="10" stroke-width="2"/><line id="Line_9" data-name="Line 9" x1="507.03" y1="114.37" x2="292.08" y2="27.24" fill="none" stroke="#e9e9f4" stroke-miterlimit="10" stroke-width="2"/><line id="Line_10" data-name="Line 10" x1="82.17" y1="114.37" x2="238.96" y2="27.24" fill="none" stroke="#e9e9f4" stroke-miterlimit="10" stroke-width="2"/><line id="Line_11" data-name="Line 11" x1="1643.02" y1="76.94" x2="1400.54" y2="29.7" fill="none" stroke="#e9e9f4" stroke-miterlimit="10" stroke-width="2"/><line id="Line_13" data-name="Line 13" x1="1486.79" y1="273.99" x2="1642.96" y2="356.74" fill="none" stroke="#e9e9f4" stroke-miterlimit="10" stroke-width="2"/><line id="Line_14" data-name="Line 14" x1="1387.97" y1="55.49" x2="1452.51" y2="236.74" fill="none" stroke="#e9e9f4" stroke-miterlimit="10" stroke-width="2"/><g id="Group_2" data-name="Group 2"><g id="Group_1" data-name="Group 1"><path id="Path_1" data-name="Path 1" d="M607.16,371.07c1.15,0,2.25-1.6,2.49-3.09a2.55,2.55,0,1,0-5-1.07,2.42,2.42,0,0,0,0,1.07C604.91,369.47,606,371.07,607.16,371.07Z" fill="#e9e9f4"/><path id="Path_2" data-name="Path 2" d="M616.85,382l-5.46-9.44a2.92,2.92,0,0,0-2.54-1.47h-3.34a2.93,2.93,0,0,0-2.54,1.46l-5.52,9.5a1.31,1.31,0,0,0,.48,1.8l.1.05a1.39,1.39,0,0,0,1.75-.61l4-7v1.12l.17,1.23s-1.69,13.44-1.75,15.84,2.27,2.86,3-.32,1.83-10.59,1.88-11c.05.37,1.12,7.85,1.88,11s3.12,2.72,3.05.32-1.75-15.84-1.75-15.84l.17-1.23h0v-1.06l4.06,7a1.32,1.32,0,0,0,1.81.49,1.18,1.18,0,0,0,.32-.27A1.37,1.37,0,0,0,616.85,382Z" fill="#e9e9f4"/></g></g><g id="Group_4" data-name="Group 4"><g id="Group_3" data-name="Group 3"><path id="Path_3" data-name="Path 3" d="M796.16,222c1.15,0,2.25-1.6,2.49-3.08a2.55,2.55,0,1,0-5-1.08,2.46,2.46,0,0,0,0,1.08C793.91,220.44,795,222,796.16,222Z" fill="#e9e9f4"/><path id="Path_4" data-name="Path 4" d="M805.85,233l-5.46-9.44a2.92,2.92,0,0,0-2.54-1.47h-3.34a3,3,0,0,0-2.54,1.46l-5.52,9.5a1.31,1.31,0,0,0,.48,1.8l.1.06a1.39,1.39,0,0,0,1.75-.62l4-7v1.12l.17,1.23s-1.68,13.44-1.75,15.84,2.27,2.86,3-.32,1.83-10.59,1.88-11c.05.37,1.12,7.86,1.88,11s3.12,2.73,3.05.32-1.75-15.84-1.75-15.84l.17-1.23h0v-1.06l4.06,7a1.32,1.32,0,0,0,1.81.49,1.18,1.18,0,0,0,.32-.27A1.37,1.37,0,0,0,805.85,233Z" fill="#e9e9f4"/></g></g><g id="Group_6" data-name="Group 6"><g id="Group_5" data-name="Group 5"><path id="Path_5" data-name="Path 5" d="M527.49,120.55c1.15,0,2.25-1.6,2.49-3.09a2.55,2.55,0,0,0-5-1.07,2.75,2.75,0,0,0,0,1.07C525.23,119,526.33,120.55,527.49,120.55Z" fill="#e9e9f4"/><path id="Path_6" data-name="Path 6" d="M537.18,131.48,531.72,122a2.94,2.94,0,0,0-2.55-1.47h-3.33A2.94,2.94,0,0,0,523.3,122l-5.53,9.5a1.31,1.31,0,0,0,.49,1.8l.1.06a1.39,1.39,0,0,0,1.75-.62l4-7v1.12l.17,1.23s-1.68,13.44-1.75,15.85,2.27,2.85,3.05-.33,1.83-10.59,1.88-10.95c0,.36,1.12,7.85,1.88,10.95s3.12,2.73,3,.33-1.75-15.85-1.75-15.85l.17-1.23h0v-1.06l4.06,7a1.31,1.31,0,0,0,1.8.48,1.4,1.4,0,0,0,.33-.26A1.37,1.37,0,0,0,537.18,131.48Z" fill="#e9e9f4"/></g></g><g id="Group_8" data-name="Group 8"><g id="Group_7" data-name="Group 7"><path id="Path_7" data-name="Path 7" d="M141.37,371.07c1.15,0,2.25-1.6,2.49-3.09a2.55,2.55,0,1,0-5-1.07,2.42,2.42,0,0,0,0,1.07C139.12,369.47,140.21,371.07,141.37,371.07Z" fill="#e9e9f4"/><path id="Path_8" data-name="Path 8" d="M151.06,382l-5.46-9.44a2.92,2.92,0,0,0-2.54-1.47h-3.34a2.94,2.94,0,0,0-2.54,1.46l-5.52,9.5a1.31,1.31,0,0,0,.48,1.8l.11.05a1.38,1.38,0,0,0,1.74-.61l4-7v1.12l.18,1.23s-1.69,13.44-1.76,15.84,2.28,2.86,3.06-.32,1.82-10.59,1.88-11c.05.37,1.12,7.85,1.88,11s3.11,2.72,3.05.32-1.75-15.84-1.75-15.84l.17-1.23h0v-1.06l4.05,7a1.33,1.33,0,0,0,1.81.49,1.18,1.18,0,0,0,.32-.27A1.37,1.37,0,0,0,151.06,382Z" fill="#e9e9f4"/></g></g><g id="Group_12" data-name="Group 12"><g id="Group_11" data-name="Group 11"><path id="Path_11" data-name="Path 11" d="M326.29,235.45c1.15,0,2.25-1.6,2.49-3.08a2.55,2.55,0,1,0-5-1.08,2.46,2.46,0,0,0,0,1.08C324,233.85,325.13,235.45,326.29,235.45Z" fill="#e9e9f4"/><path id="Path_12" data-name="Path 12" d="M336,246.37l-5.46-9.44a2.92,2.92,0,0,0-2.54-1.47h-3.34a2.93,2.93,0,0,0-2.54,1.46l-5.52,9.5a1.31,1.31,0,0,0,.48,1.8l.1.06a1.39,1.39,0,0,0,1.75-.62l4-7v1.12l.17,1.23s-1.68,13.44-1.75,15.84,2.27,2.86,3.05-.32,1.83-10.59,1.88-11c0,.37,1.12,7.86,1.88,11s3.12,2.73,3.05.32S329.47,243,329.47,243l.17-1.23h0v-1.06l4.06,7a1.32,1.32,0,0,0,1.81.49,1.18,1.18,0,0,0,.32-.27A1.37,1.37,0,0,0,336,246.37Z" fill="#e9e9f4"/></g></g><g id="Group_14" data-name="Group 14"><g id="Group_13" data-name="Group 13"><path id="Path_13" data-name="Path 13" d="M359.83,453.15c1.15,0,2.25-1.6,2.49-3.08a2.55,2.55,0,0,0-5-1.08,2.46,2.46,0,0,0,0,1.08C357.58,451.55,358.67,453.15,359.83,453.15Z" fill="#e9e9f4"/><path id="Path_14" data-name="Path 14" d="M369.52,464.07l-5.46-9.44a2.92,2.92,0,0,0-2.54-1.47h-3.34a2.94,2.94,0,0,0-2.54,1.46l-5.52,9.5a1.31,1.31,0,0,0,.48,1.8l.11.05a1.37,1.37,0,0,0,1.74-.61l4-7v1.11l.18,1.24s-1.7,13.44-1.76,15.84,2.27,2.86,3.05-.32,1.83-10.6,1.88-11c.05.36,1.12,7.85,1.88,11s3.12,2.72,3.05.32S363,460.72,363,460.72l.18-1.24h0v-1.05l4.06,7a1.32,1.32,0,0,0,1.81.48,1.35,1.35,0,0,0,.32-.26A1.37,1.37,0,0,0,369.52,464.07Z" fill="#e9e9f4"/></g></g><g id="Group_16" data-name="Group 16"><g id="Group_15" data-name="Group 15"><path id="Path_15" data-name="Path 15" d="M265.52,16.5c1.15,0,2.25-1.61,2.49-3.09a2.55,2.55,0,0,0-5-1.08,2.8,2.8,0,0,0,0,1.08C263.26,14.9,264.36,16.5,265.52,16.5Z" fill="#e9e9f4"/><path id="Path_16" data-name="Path 16" d="M275.21,27.41,269.75,18a3,3,0,0,0-2.55-1.47h-3.33A2.91,2.91,0,0,0,261.33,18l-5.53,9.5a1.32,1.32,0,0,0,.48,1.8l.11.06a1.38,1.38,0,0,0,1.74-.62l4-7v1.11l.17,1.24s-1.68,13.44-1.75,15.84,2.27,2.86,3.05-.32,1.83-10.59,1.88-11c.05.37,1.12,7.85,1.88,11s3.12,2.72,3.05.32-1.75-15.84-1.75-15.84l.17-1.24h0V21.77l4.05,7a1.32,1.32,0,0,0,1.81.48,1.35,1.35,0,0,0,.33-.26A1.37,1.37,0,0,0,275.21,27.41Z" fill="#e9e9f4"/></g></g><g id="Group_18" data-name="Group 18"><g id="Group_17" data-name="Group 17"><path id="Path_17" data-name="Path 17" d="M61.7,120.55c1.16,0,2.26-1.6,2.5-3.09a2.55,2.55,0,0,0-5-1.07,2.42,2.42,0,0,0,0,1.07C59.44,119,60.54,120.55,61.7,120.55Z" fill="#e9e9f4"/><path id="Path_18" data-name="Path 18" d="M71.39,131.48,65.93,122a2.94,2.94,0,0,0-2.55-1.47H60.05A2.94,2.94,0,0,0,57.51,122L52,131.52a1.32,1.32,0,0,0,.48,1.8l.11.06a1.4,1.4,0,0,0,1.75-.62l4-7v1.12l.17,1.23S56.84,141.56,56.77,144s2.27,2.85,3-.33,1.83-10.59,1.88-10.95c0,.36,1.12,7.85,1.88,10.95s3.12,2.73,3,.33-1.75-15.85-1.75-15.85l.17-1.23h0v-1.06l4.06,7a1.31,1.31,0,0,0,1.8.48,1.64,1.64,0,0,0,.33-.26A1.37,1.37,0,0,0,71.39,131.48Z" fill="#e9e9f4"/></g></g><g id="Group_20" data-name="Group 20"><g id="Group_19" data-name="Group 19"><path id="Path_19" data-name="Path 19" d="M1462.47,252.55c1.16,0,2.26-1.61,2.5-3.09a2.55,2.55,0,1,0-5-1.07,2.42,2.42,0,0,0,0,1.07C1460.22,250.94,1461.32,252.55,1462.47,252.55Z" fill="#e9e9f4"/><path id="Path_20" data-name="Path 20" d="M1472.16,263.47,1466.7,254a2.92,2.92,0,0,0-2.54-1.47h-3.34a3,3,0,0,0-2.54,1.46l-5.52,9.5a1.31,1.31,0,0,0,.48,1.8l.1.06a1.39,1.39,0,0,0,1.75-.62l4-7v1.12l.18,1.23s-1.69,13.44-1.76,15.85,2.27,2.85,3-.33,1.83-10.59,1.88-10.95c.06.36,1.13,7.85,1.88,10.95s3.12,2.73,3.06.33-1.76-15.85-1.76-15.85l.18-1.23h0v-1.06l4.05,7a1.33,1.33,0,0,0,1.81.48,1.35,1.35,0,0,0,.32-.26A1.37,1.37,0,0,0,1472.16,263.47Z" fill="#e9e9f4"/></g></g><g id="Group_22" data-name="Group 22"><g id="Group_21" data-name="Group 21"><path id="Path_21" data-name="Path 21" d="M1302.15,506c1.16,0,2.26-1.6,2.5-3.09a2.55,2.55,0,0,0-5-1.07,2.42,2.42,0,0,0,0,1.07C1299.9,504.43,1301,506,1302.15,506Z" fill="#e9e9f4"/></g></g><g id="Group_22-2" data-name="Group 22"><g id="Group_21-2" data-name="Group 21"><path id="Path_21-2" data-name="Path 21" d="M1203.79,355.31c1.15,0,2.25-1.6,2.49-3.08a2.55,2.55,0,0,0-5-1.08,2.8,2.8,0,0,0,0,1.08C1201.53,353.71,1202.63,355.31,1203.79,355.31Z" fill="#e9e9f4"/><path id="Path_22" data-name="Path 22" d="M1213.47,366.23l-5.45-9.44a3,3,0,0,0-2.55-1.47h-3.33a2.94,2.94,0,0,0-2.55,1.46l-5.52,9.5a1.32,1.32,0,0,0,.48,1.8l.11.05a1.37,1.37,0,0,0,1.74-.62l4-7v1.11l.18,1.24s-1.68,13.44-1.75,15.84,2.27,2.86,3.05-.32,1.83-10.59,1.88-11c0,.37,1.12,7.85,1.88,11s3.11,2.72,3,.32-1.75-15.84-1.75-15.84l.17-1.24h0v-1.05l4,7a1.32,1.32,0,0,0,1.81.48,1.31,1.31,0,0,0,.44-1.86Z" fill="#e9e9f4"/></g></g><g id="Group_28" data-name="Group 28"><g id="Group_27" data-name="Group 27"><path id="Path_27" data-name="Path 27" d="M1374,19c1.16,0,2.26-1.6,2.5-3.08a2.55,2.55,0,0,0-5-1.08,2.8,2.8,0,0,0,0,1.08C1371.72,17.35,1372.82,19,1374,19Z" fill="#e9e9f4"/><path id="Path_28" data-name="Path 28" d="M1383.66,29.87l-5.45-9.44a3,3,0,0,0-2.55-1.47h-3.34a2.94,2.94,0,0,0-2.54,1.46l-5.52,9.5a1.31,1.31,0,0,0,.48,1.8l.11.05a1.37,1.37,0,0,0,1.74-.61l4-7v1.12l.18,1.23S1369.11,40,1369,42.36s2.28,2.86,3-.32,1.83-10.59,1.89-11c0,.37,1.12,7.86,1.88,11s3.11,2.73,3.05.32-1.75-15.84-1.75-15.84l.17-1.23h0V24.23l4.05,7a1.33,1.33,0,0,0,1.81.49,1.18,1.18,0,0,0,.32-.27A1.35,1.35,0,0,0,1383.66,29.87Z" fill="#e9e9f4"/></g></g><g id="Group_30" data-name="Group 30"><g id="Group_29" data-name="Group 29"><path id="Path_29" data-name="Path 29" d="M987.85,269.47c1.16,0,2.26-1.6,2.5-3.08a2.55,2.55,0,0,0-5-1.08,2.8,2.8,0,0,0,0,1.08C985.6,267.87,986.7,269.47,987.85,269.47Z" fill="#e9e9f4"/><path id="Path_30" data-name="Path 30" d="M997.54,280.39,992.09,271a3,3,0,0,0-2.55-1.47h-3.33a2.94,2.94,0,0,0-2.55,1.46l-5.52,9.5a1.31,1.31,0,0,0,.49,1.8l.1.05a1.36,1.36,0,0,0,1.74-.62l4-7v1.11l.18,1.24s-1.68,13.44-1.75,15.84,2.27,2.86,3.05-.32,1.83-10.59,1.88-11c0,.37,1.12,7.85,1.88,11s3.11,2.72,3,.32S991,277,991,277l.17-1.24h0v-1.05l4,7a1.32,1.32,0,0,0,1.81.48,1.14,1.14,0,0,0,.32-.26A1.35,1.35,0,0,0,997.54,280.39Z" fill="#e9e9f4"/></g></g><g id="Group_32" data-name="Group 32"><g id="Group_31" data-name="Group 31"><path id="Path_31" data-name="Path 31" d="M820.54,455.08c1.15,0,2.25-1.6,2.49-3.09a2.55,2.55,0,0,0-5-1.07,2.75,2.75,0,0,0,0,1.07C818.28,453.47,819.38,455.08,820.54,455.08Z" fill="#e9e9f4"/><path id="Path_32" data-name="Path 32" d="M830.22,466l-5.45-9.45a3,3,0,0,0-2.55-1.47h-3.33a3,3,0,0,0-2.54,1.46l-5.52,9.5a1.31,1.31,0,0,0,.48,1.8l.1.06a1.39,1.39,0,0,0,1.75-.62l4-7v1.12l.17,1.23s-1.68,13.44-1.75,15.85,2.27,2.85,3-.33,1.83-10.59,1.88-11c.05.36,1.12,7.85,1.88,11s3.12,2.73,3.05.33-1.75-15.85-1.75-15.85l.17-1.23h0v-1.06l4.06,7a1.32,1.32,0,0,0,1.81.49,1.18,1.18,0,0,0,.32-.27A1.34,1.34,0,0,0,830.22,466Z" fill="#e9e9f4"/></g></g><g id="Group_34" data-name="Group 34"><g id="Group_33" data-name="Group 33"><path id="Path_33" data-name="Path 33" d="M1203.78,77.41c1.15,0,2.25-1.61,2.49-3.09a2.55,2.55,0,0,0-5-1.07,2.75,2.75,0,0,0,0,1.07C1201.52,75.8,1202.62,77.41,1203.78,77.41Z" fill="#e9e9f4"/><path id="Path_34" data-name="Path 34" d="M1213.47,88.32,1208,78.88a3,3,0,0,0-2.55-1.47h-3.33a2.94,2.94,0,0,0-2.54,1.46l-5.53,9.5a1.31,1.31,0,0,0,.49,1.8l.1.06a1.39,1.39,0,0,0,1.75-.62l4-7v1.12l.17,1.23s-1.68,13.44-1.75,15.84,2.27,2.86,3.05-.32,1.83-10.59,1.88-11c0,.37,1.12,7.86,1.88,11s3.12,2.73,3,.32S1207,85,1207,85l.17-1.23h0V82.68l4.06,7a1.32,1.32,0,0,0,1.81.49,1.35,1.35,0,0,0,.32-.27A1.37,1.37,0,0,0,1213.47,88.32Z" fill="#e9e9f4"/></g></g><g id="Group_38" data-name="Group 38"><g id="Group_37" data-name="Group 37"><path id="Path_37" data-name="Path 37" d="M908.18,19c1.16,0,2.26-1.6,2.5-3.08a2.55,2.55,0,0,0-5-1.08,2.46,2.46,0,0,0,0,1.08C905.93,17.35,907,19,908.18,19Z" fill="#e9e9f4"/><path id="Path_38" data-name="Path 38" d="M917.88,29.87l-5.46-9.44A3,3,0,0,0,909.87,19h-3.33A2.91,2.91,0,0,0,904,20.42l-5.53,9.5a1.31,1.31,0,0,0,.49,1.8.31.31,0,0,0,.1.05,1.38,1.38,0,0,0,1.75-.61l4-7v1.12l.17,1.23S903.33,40,903.26,42.36s2.27,2.86,3-.32,1.83-10.59,1.88-11c0,.37,1.12,7.86,1.88,11s3.12,2.73,3,.32-1.75-15.84-1.75-15.84l.17-1.23h0V24.23l4.06,7a1.32,1.32,0,0,0,1.81.49,1.18,1.18,0,0,0,.32-.27A1.35,1.35,0,0,0,917.88,29.87Z" fill="#e9e9f4"/></g></g><line x1="1203.79" y1="333.75" x2="1203.79" y2="114.71" fill="none" stroke="#e9e9f4" stroke-miterlimit="10" stroke-width="2"/><line x1="1171.74" y1="354.57" x2="1012.17" y2="290.92" fill="none" stroke="#e9e9f4" stroke-miterlimit="10" stroke-width="2"/><polyline points="1203.77 367.35 1203.78 367.35 1203.79 367.36 1203.79 367.35" fill="none" stroke="#e9e9f4" stroke-miterlimit="10" stroke-width="2"/><line id="Line_15" data-name="Line 15" x1="921.41" y1="52.73" x2="978.39" y2="255.41" fill="none" stroke="#e9e9f4" stroke-miterlimit="10" stroke-width="2"/><line id="Line_16" data-name="Line 16" x1="1225.97" y1="102.75" x2="1440.29" y2="246.37" fill="none" stroke="#e9e9f4" stroke-miterlimit="10" stroke-width="2"/><line id="Line_17" data-name="Line 17" x1="1353.51" y1="12.78" x2="1138.56" y2="-74.35" fill="none" stroke="#e9e9f4" stroke-miterlimit="10" stroke-width="2"/><line id="Line_18" data-name="Line 18" x1="928.65" y1="12.78" x2="1085.45" y2="-74.35" fill="none" stroke="#e9e9f4" stroke-miterlimit="10" stroke-width="2" stroke-dasharray="8"/><line x1="1440.3" y1="277.88" x2="1231.45" y2="356.89" fill="none" stroke="#e9e9f4" stroke-miterlimit="10" stroke-width="2" stroke-dasharray="8"/><line x1="1171.97" y1="375.84" x2="846.9" y2="462.6" fill="none" stroke="#e9e9f4" stroke-miterlimit="10" stroke-width="2" stroke-dasharray="8"/><line id="Line_19" data-name="Line 19" x1="820.18" y1="244.15" x2="965.19" y2="266.39" fill="none" stroke="#e9e9f4" stroke-miterlimit="10" stroke-width="2" stroke-dasharray="8"/><line id="Line_20" data-name="Line 20" x1="-94.97" y1="246.37" x2="43.37" y2="150.5" fill="none" stroke="#e9e9f4" stroke-miterlimit="10" stroke-width="2"/><line id="Line_21" data-name="Line 21" x1="114.82" y1="371.07" x2="-88.88" y2="277.89" fill="none" stroke="#e9e9f4" stroke-miterlimit="10" stroke-width="2" stroke-dasharray="8"/><path id="Path_41" data-name="Path 41" d="M-129.33,240.67-212.9,131.3H35.15" fill="none" stroke="#e9e9f4" stroke-miterlimit="10" stroke-width="2"/><path id="Path_42" data-name="Path 42" d="M-115.43,289.85l34.75,295.68L119.19,396.41" fill="none" stroke="#e9e9f4" stroke-miterlimit="10" stroke-width="2"/><line id="Line_22" data-name="Line 22" x1="160.57" y1="364.9" x2="308.48" y2="260.8" fill="none" stroke="#e9e9f4" stroke-miterlimit="10" stroke-width="2"/><g id="Group_39" data-name="Group 39"><line id="Line_23" data-name="Line 23" x1="541.48" y1="157.07" x2="597.69" y2="357.01" fill="none" stroke="#e9e9f4" stroke-miterlimit="10" stroke-width="2" stroke-dasharray="8"/><line id="Line_24" data-name="Line 24" x1="770.24" y1="222.04" x2="552.97" y2="138.84" fill="none" stroke="#e9e9f4" stroke-miterlimit="10" stroke-width="2" stroke-dasharray="8"/><line id="Line_25" data-name="Line 25" x1="167.93" y1="393.41" x2="333.96" y2="457.91" fill="none" stroke="#e9e9f4" stroke-miterlimit="10" stroke-width="2" stroke-dasharray="8"/><line id="Line_26" data-name="Line 26" x1="584.98" y1="396.41" x2="386.39" y2="459.69" fill="none" stroke="#e9e9f4" stroke-miterlimit="10" stroke-width="2" stroke-dasharray="8"/><line id="Line_27" data-name="Line 27" x1="1179.37" y1="77.68" x2="934.75" y2="33.3" fill="none" stroke="#e9e9f4" stroke-miterlimit="10" stroke-width="2" stroke-dasharray="8"/><line id="Line_28" data-name="Line 28" x1="1221.19" y1="68.11" x2="1347.42" y2="29.7" fill="none" stroke="#e9e9f4" stroke-miterlimit="10" stroke-width="2" stroke-dasharray="8"/><line id="Line_29" data-name="Line 29" x1="806.05" y1="208.14" x2="897.03" y2="53.8" fill="none" stroke="#e9e9f4" stroke-miterlimit="10" stroke-width="2" stroke-dasharray="8"/></g><line id="Line_30" data-name="Line 30" x1="548.23" y1="114.71" x2="881.63" y2="29.7" fill="none" stroke="#e9e9f4" stroke-miterlimit="10" stroke-width="2" stroke-dasharray="8"/><path id="Path_43" data-name="Path 43" d="M527.49,104.74,597.27-163,286,10.32" fill="none" stroke="#e9e9f4" stroke-miterlimit="10" stroke-width="2"/><line id="Line_31" data-name="Line 31" x1="897.03" y1="5.6" x2="597.27" y2="-162.96" fill="none" stroke="#e9e9f4" stroke-miterlimit="10" stroke-width="2"/><path id="Path_44" data-name="Path 44" d="M250.94,3.15l-238-124L54.89,104.74" fill="none" stroke="#e9e9f4" stroke-miterlimit="10" stroke-width="2"/><line id="Line_32" data-name="Line 32" x1="-212.9" y1="131.3" x2="12.97" y2="-120.89" fill="none" stroke="#e9e9f4" stroke-miterlimit="10" stroke-width="2"/><path id="Path_45" data-name="Path 45" d="M820.54,492.38,666.61,654.55,607.17,408.38" fill="none" stroke="#e9e9f4" stroke-miterlimit="10" stroke-width="2"/><line id="Line_33" data-name="Line 33" x1="1203.78" y1="61.6" x2="1121.89" y2="-47.8" fill="none" stroke="#e9e9f4" stroke-miterlimit="10" stroke-width="2" stroke-dasharray="8"/><line id="Line_34" data-name="Line 34" x1="1275.6" y1="516.78" x2="846.9" y2="480.42" fill="none" stroke="#e9e9f4" stroke-miterlimit="10" stroke-width="2" stroke-dasharray="8"/><line x1="1292.27" y1="492.13" x2="1219.84" y2="390" fill="none" stroke="#e9e9f4" stroke-miterlimit="10" stroke-width="2" stroke-dasharray="8"/><line id="Line_36" data-name="Line 36" x1="1387.59" y1="6.9" x2="1400.54" y2="-88.19" fill="none" stroke="#e9e9f4" stroke-miterlimit="10" stroke-width="2" stroke-dasharray="8"/><path id="Path_46" data-name="Path 46" d="M1462.48,289.85,1586.2,585.53l73.39-192" fill="none" stroke="#e9e9f4" stroke-miterlimit="10" stroke-width="2"/></g></g></svg>