<svg id="Layer_1" data-name="Layer 1" xmlns="http://www.w3.org/2000/svg" viewBox="0 0 232.96 50.32"><circle cx="25.97" cy="18.77" r="5.47" fill="#333"/><path d="M2.7,4.9v13h.65A5.69,5.69,0,0,0,9,12.18V9.81A85.37,85.37,0,0,1,26,8.22a86,86,0,0,1,17,1.62V31.39L26,41.13,9,31.39v-2.3A6.34,6.34,0,0,0,2.7,22.76h0V35.05L26,48.44,49.25,35.05V4.9s-9-3-23.28-3C11.33,1.89,2.7,4.9,2.7,4.9Z" fill="#333"/><path d="M16.08,31.34,26,37l9.9-5.69a6.38,6.38,0,0,0-6.11-4.62H22.18A6.36,6.36,0,0,0,16.08,31.34Z" fill="#333"/><path d="M150,30.37a3.67,3.67,0,0,1-.6,2.2,1.84,1.84,0,0,1-1.59.82,1.63,1.63,0,0,1-1.26-.73,6.8,6.8,0,0,1-1-1.64c-.25-.61-.57-1.48-.57-1.48l-4.57,2.64.35,1.13a9.14,9.14,0,0,0,3,4.47,7.28,7.28,0,0,0,4.44,1.46,7.12,7.12,0,0,0,5.55-2.33A8.82,8.82,0,0,0,156,30.75V11H150Z" fill="#ff593f"/><path d="M173.06,10.75a13.28,13.28,0,0,0-9.67,4,13.68,13.68,0,0,0-4.08,10.18,14,14,0,0,0,3.93,10.23,13.36,13.36,0,0,0,10,4,13.59,13.59,0,0,0,10.08-4.05,13.85,13.85,0,0,0,4-10.17,13.82,13.82,0,0,0-14.28-14.23Zm5.83,20.54a7.2,7.2,0,0,1-5.64,2.4,7.08,7.08,0,0,1-5.51-2.43,8.87,8.87,0,0,1-2.18-6.15,9.43,9.43,0,0,1,2.14-6.4,6.87,6.87,0,0,1,5.63-2.41,7.35,7.35,0,0,1,5.61,2.41,9,9,0,0,1,2.1,6.23A9.15,9.15,0,0,1,178.89,31.29Z" fill="#ff593f"/><path d="M204.91,23.66a9.17,9.17,0,0,0,2.18-2.51,6.27,6.27,0,0,0,.68-3,7.26,7.26,0,0,0-1.86-4.95C204.66,11.75,202.35,11,199,11h-8.1V38.86h9.31q4.77,0,7.39-2.14a7.29,7.29,0,0,0,2.62-6A7.8,7.8,0,0,0,209,26.6,7.36,7.36,0,0,0,204.91,23.66Zm-8-8h1.41a4,4,0,0,1,2.53.8,2.38,2.38,0,0,1,1,1.95,3.14,3.14,0,0,1-1,2.39,3.62,3.62,0,0,1-2.55,1h-1.37ZM199,34.2h-2.14V26.53h2.44a5,5,0,0,1,3.43,1,3.78,3.78,0,0,1,1.2,3Q203.93,34.21,199,34.2Z" fill="#ff593f"/><path d="M229.32,26.74A7.34,7.34,0,0,0,227,24.13,25.15,25.15,0,0,0,222.85,22c-2.48-1-3.73-2.19-3.73-3.56a2.5,2.5,0,0,1,.72-1.79,2.31,2.31,0,0,1,1.72-.75c.86,0,2.27.58,4.24,1.73l3.73-4.09a11,11,0,0,0-7.76-2.9A8.74,8.74,0,0,0,215.46,13,8,8,0,0,0,213,19a7.62,7.62,0,0,0,.75,3.27,6.44,6.44,0,0,0,1.86,2.44,15.07,15.07,0,0,0,3.73,1.79c3.06,1.11,4.6,2.39,4.6,3.84a2.82,2.82,0,0,1-1,2,3,3,0,0,1-2.08,1q-2.31,0-5-2.73L212,35.17q4.22,4.08,8.54,4.07a9.78,9.78,0,0,0,6.84-2.65,8.2,8.2,0,0,0,2.89-6.22A7.29,7.29,0,0,0,229.32,26.74Z" fill="#ff593f"/><path d="M65.81,30.37a3.67,3.67,0,0,1-.59,2.2,1.87,1.87,0,0,1-1.59.82,1.63,1.63,0,0,1-1.26-.73,6.49,6.49,0,0,1-1-1.64c-.26-.61-.58-1.48-.58-1.48l-4.56,2.64.35,1.13a9.08,9.08,0,0,0,3,4.47,7.24,7.24,0,0,0,4.44,1.46,7.15,7.15,0,0,0,5.55-2.33,8.82,8.82,0,0,0,2.12-6.16V11H65.81Z" fill="#333"/><path d="M93.23,27.76a5.77,5.77,0,0,1-1.36,4.1,4.94,4.94,0,0,1-3.81,1.45,4.43,4.43,0,0,1-3.45-1.44,5.42,5.42,0,0,1-1.32-3.81V11H77.38V29.35A10.32,10.32,0,0,0,80,36.05c1.77,2.13,4.55,3.19,8.37,3.19a12,12,0,0,0,5.71-1.35A8.56,8.56,0,0,0,97.89,34a11.35,11.35,0,0,0,1.23-4.93V11H93.23Z" fill="#333"/><path d="M118,24.13A25.32,25.32,0,0,0,113.86,22c-2.48-1-3.72-2.19-3.72-3.56a2.5,2.5,0,0,1,.72-1.79,2.29,2.29,0,0,1,1.71-.75c.86,0,2.28.58,4.24,1.73l3.73-4.09a11,11,0,0,0-7.76-2.9A8.76,8.76,0,0,0,106.47,13a8,8,0,0,0-2.41,6,7.62,7.62,0,0,0,.75,3.27,6.43,6.43,0,0,0,1.85,2.44,15.25,15.25,0,0,0,3.73,1.79c3.06,1.11,4.6,2.39,4.6,3.84a2.79,2.79,0,0,1-1,2,3,3,0,0,1-2.07,1c-1.54,0-3.2-.91-5-2.73L103,35.17q4.22,4.08,8.54,4.07a9.77,9.77,0,0,0,6.83-2.65,8.17,8.17,0,0,0,2.89-6.22,7.28,7.28,0,0,0-.94-3.63A7.54,7.54,0,0,0,118,24.13Z" fill="#333"/><polygon points="123.67 11.04 123.67 16.95 130.01 16.95 130.01 38.86 136 38.86 136 16.95 142.38 16.95 142.38 11.04 123.67 11.04" fill="#333"/></svg>