<?xml version="1.0" encoding="utf-8"?>
<!-- Generator: Adobe Illustrator 26.0.3, SVG Export Plug-In . SVG Version: 6.00 Build 0)  -->
<svg version="1.1" id="Layer_1" xmlns="http://www.w3.org/2000/svg" xmlns:xlink="http://www.w3.org/1999/xlink" x="0px" y="0px"
	 viewBox="0 0 574 498.8" style="enable-background:new 0 0 574 498.8;" xml:space="preserve">
<style type="text/css">
	.st0{fill:#E3E3E3;}
	.st1{fill:#D1D1D1;}
	.st2{fill:#F5F5F5;}
	.st3{fill:#FF593F;}
	.st4{fill:#FFFFFF;}
	.st5{fill:#17212B;}
	.st6{fill:#636363;}
	.st7{fill:#FFBC9D;}
	.st8{fill:#2F4559;}
</style>
<g>
	<rect x="284.8" y="2.4" class="st0" width="2.4" height="83.9"/>
	<path class="st0" d="M286,118.5c-8.6,0-15.6-7-15.6-15.6s7-15.6,15.6-15.6c8.6,0,15.6,7,15.6,15.6
		C301.6,111.5,294.6,118.4,286,118.5z M286,89.6c-7.3,0-13.2,5.9-13.2,13.2s5.9,13.2,13.2,13.2c7.3,0,13.2-5.9,13.2-13.2
		c0,0,0,0,0,0C299.2,95.6,293.3,89.6,286,89.6z"/>
	<path class="st1" d="M362.2,102.9H209.8l7.9-7.9c31.7-32,53.6-42,68.3-42l0,0c14.7,0,36.6,10.1,68.3,42L362.2,102.9z"/>
	<path class="st2" d="M559.2,349.6h-2c0-26.4-6.5-44.1-20-54c-12.5-9.2-29.5-10.5-44.5-10.5c-17.3,0-35.2-1.3-49.3-10.8
		C427,263.2,419,243.1,419,212.8c0-63.9-31.5-92.5-62.7-92.5v-2c32.1,0,64.7,29.2,64.7,94.5c0,29.6,7.7,49.2,23.6,59.9
		c13.6,9.2,31.2,10.5,48.2,10.5C527.2,283.2,559.2,291.2,559.2,349.6z"/>
	<path class="st1" d="M519.3,295.9c-5.1,0-9.2-4.1-9.2-9.2c0-5.1,4.1-9.2,9.2-9.2c5.1,0,9.2,4.1,9.2,9.2S524.4,295.9,519.3,295.9
		L519.3,295.9z M519.3,279.5c-4,0-7.2,3.2-7.2,7.2c0,4,3.2,7.2,7.2,7.2s7.2-3.2,7.2-7.2C526.5,282.7,523.3,279.5,519.3,279.5z"/>
	<path class="st1" d="M555.7,333.3c-5.1,0-9.2-4.1-9.2-9.2c0-5.1,4.1-9.2,9.2-9.2c5.1,0,9.2,4.1,9.2,9.2S560.8,333.3,555.7,333.3
		L555.7,333.3z M555.7,316.9c-4,0-7.2,3.2-7.2,7.2c0,4,3.2,7.2,7.2,7.2s7.2-3.2,7.2-7.2S559.7,316.9,555.7,316.9L555.7,316.9z"/>
	<path class="st1" d="M380.7,134.6c-5.1,0-9.2-4.1-9.2-9.2c0-5.1,4.1-9.2,9.2-9.2c5.1,0,9.2,4.1,9.2,9.2
		C389.9,130.5,385.8,134.6,380.7,134.6L380.7,134.6z M380.7,118.2c-4,0-7.2,3.2-7.2,7.2c0,4,3.2,7.2,7.2,7.2c4,0,7.2-3.2,7.2-7.2
		C387.9,121.4,384.7,118.2,380.7,118.2z"/>
	<path class="st1" d="M420.8,237.6c-5.1,0-9.2-4.1-9.2-9.2s4.1-9.2,9.2-9.2c5.1,0,9.2,4.1,9.2,9.2
		C430,233.4,425.9,237.6,420.8,237.6z M420.8,221.2c-4,0-7.2,3.2-7.2,7.2s3.2,7.2,7.2,7.2s7.2-3.2,7.2-7.2
		C428,224.4,424.8,221.2,420.8,221.2z"/>
	<rect x="24.3" y="449.4" class="st3" width="129.1" height="21.9"/>
	<rect x="115.7" y="456.3" class="st4" width="37.7" height="8.1"/>
	<rect x="8.1" y="471.3" class="st5" width="129.1" height="21.9"/>
	<rect x="80.9" y="478.2" class="st4" width="56.3" height="8.1"/>
	<path class="st3" d="M64,402.8c0,0-5.3-4.3-9.3-8.1c-7-6.8-9.3-16.8-9.3-16.8s19.1,2.3,25.1,12.5s5.5,12.4,5.5,12.4H64z"/>
	<path class="st3" d="M113.6,402.8c0,0,5.4-4.3,9.3-8.1c7-6.8,9.3-16.8,9.3-16.8s-19.1,2.3-25.1,12.5s-5.5,12.4-5.5,12.4H113.6z"/>
	<path class="st3" d="M76,402.8c0,0-5.5-5.9-5.5-20.6s1.2-18.8,1.2-18.8s13.5,11.8,15.1,22.8s1.3,16.6,1.3,16.6H76z"/>
	<path class="st3" d="M88.1,402.8c0,0-1.8-9.6,2.3-22.1s12-24.1,12-24.1s7.5,22.4,4,33.8s-3.7,12.5-3.7,12.5H88.1z"/>
	<path class="st6" d="M69,399.1c-1.9-1.8-3.7-3.4-5.6-5.1l-5.5-5c-1.8-1.7-3.7-3.3-5.5-5c-0.9-0.8-1.8-1.7-2.7-2.6s-1.8-1.7-2.7-2.7
		c1.2,0.5,2.3,1.1,3.4,1.7s2.2,1.3,3.2,2c2.1,1.4,4.1,3,6,4.6c1.9,1.7,3.7,3.5,5.3,5.5l1.2,1.5c0.4,0.5,0.7,1,1.1,1.6
		C67.9,396.8,68.5,397.9,69,399.1z"/>
	<path class="st6" d="M81.8,394.3c-0.7-2.2-1.6-4.3-2.4-6.5s-1.6-4.2-2.4-6.4c-0.4-1.1-0.8-2.1-1.2-3.2s-0.8-2.1-1.1-3.2
		c-0.8-2.2-1.4-4.4-2-6.7c1.4,1.9,2.7,3.8,3.8,5.9c1.1,2,2.1,4.2,2.9,6.3c0.9,2.2,1.5,4.4,2,6.7C82,389.6,82.1,392,81.8,394.3z"/>
	<path class="st6" d="M130.4,379.1l-5.1,4c-1.7,1.3-3.3,2.6-4.9,4c-0.8,0.7-1.6,1.4-2.4,2.1s-1.6,1.4-2.3,2.2c-1.6,1.5-3,3-4.7,4.6
		c0.8-2.1,1.9-4.1,3.2-5.9c1.3-1.8,2.8-3.5,4.5-4.9c1.7-1.5,3.5-2.8,5.5-3.8C126.1,380.3,128.2,379.5,130.4,379.1z"/>
	<path class="st6" d="M95.1,395.2c-0.4-2.9-0.4-5.9,0-8.8c0.3-2.9,0.7-5.8,1.4-8.6c0.6-2.9,1.3-5.7,2.2-8.5c0.8-2.8,1.8-5.6,3-8.2
		c-0.2,2.9-0.6,5.8-1.1,8.7c-0.2,1.4-0.5,2.9-0.7,4.3s-0.5,2.8-0.8,4.3c-0.6,2.8-1.1,5.6-1.8,8.5S95.8,392.3,95.1,395.2z"/>
	<path class="st5" d="M88.8,449.4L88.8,449.4c-19.9,0-36.1-16.2-36.1-36.1v-10.6h72.2v10.5C124.9,433.3,108.8,449.4,88.8,449.4
		C88.8,449.4,88.8,449.4,88.8,449.4z"/>
	<path class="st5" d="M311,298.9c0,0-17.7,1.2-26-34.5s11.9-68.1,46.5-71.2s53.2,28.4,54.7,47.5s3.6,59.8-21.2,55.4L311,298.9z"/>
	<path class="st7" d="M214.2,444.3c-5.7,7-6.2,13.7,3.6,23s24.8,14.5,24.8,14.5v-34.6L214.2,444.3z"/>
	<path class="st7" d="M373.7,265.5c5.2,35.1-14.6,44.8-14.6,44.8c2.6,23.7,9.4,27.5,9.4,27.5c-21.7,24.8-46.5,2.6-46.5,2.6
		c9.8-8.3,7.7-27.4,7.7-27.4c-27.4-7.2-27.4-43.9-27.4-43.9s-3.6,6.2-10.3,0s-6.2-17.5,0-17s5.6,4.6,5.6,4.6
		c29.4-12.4,32-37.7,32-37.7c13.4,32,42.3,31.5,42.3,31.5c-0.1-3.1,2.3-5.8,5.4-6.2c5.7-1,7.2,23.7-2.3,21.4L373.7,265.5z"/>
	<circle class="st5" cx="328.3" cy="176.2" r="19.9"/>
	<path class="st3" d="M322.1,340.3c0,0-19.2-4.1-39,11.4s-64.2,78.5-73.5,92.9c0,0,16.5,14.5,53.2,18.6s124.2,2.6,124.2,2.6
		s14.1-28.9,12.6-54.7c0,0,25.3,60.9,52.6,78.4c0,0-8.8-16.5,18.6-66.6c0,0-33-31.5-48-53.2s-36.1-37.2-54.2-32
		C368.6,337.8,352.1,354.2,322.1,340.3z"/>
	<path class="st7" d="M470.8,422.9c8.3-14.2,30.1-50.8,30.1-50.8s0-15.5,12.4-18.2c0,0,6.2-13.5,7.7-24.4s3.9-13.2,5-5
		s-1.9,23.2-1.9,23.2s2.7-9.3,7.3-8.5s3.9,4.3,3.9,4.3c0.6-1.3,2.1-2,3.5-1.5c2.7,0.6,2.3,6.4,2.3,6.4c0.7-1,2.1-1.2,3-0.4
		c0,0,0,0,0.1,0c1.7,1.4,1.3,2.3-1.2,10.6c-1.1,3.4-2.1,6.9-2.8,10.5c0,0-4.3,0-4.3-4.3c0,0-3.8,11-15.5,15.3
		c-6.7,2.5-17.2,50.8-30.5,78.4c-12.6,26.1-32.7,34.9-38.6,27.9C451.3,486.3,445.5,466.1,470.8,422.9z"/>
	<path class="st6" d="M513.2,353.9c1.5-0.3,3-0.6,4.5-0.9s3-0.7,4.5-1.1s2.9-0.8,4.4-1.3s2.9-1,4.3-1.5l1-0.4l-0.3,1
		c-0.7,2-1.7,3.8-3,5.5c-1.2,1.7-2.7,3.1-4.3,4.4c-1.6,1.3-3.4,2.3-5.2,3.2l-0.7,0.3l-0.7,0.3l-1.4,0.5c-1,0.3-2,0.6-2.9,0.8
		c0.9-0.4,1.9-0.7,2.8-1.1s1.8-0.8,2.7-1.3c1.8-0.9,3.5-2.1,5-3.4c1.5-1.3,2.9-2.8,4.1-4.4c1.2-1.6,2.1-3.3,2.8-5.2l0.7,0.6
		c-1.4,0.6-2.9,1.1-4.4,1.5c-1.5,0.4-3,0.8-4.5,1.1s-3,0.6-4.5,0.8S514.8,353.8,513.2,353.9z"/>
	<path class="st6" d="M535.3,343.4c-1,4.2-2.2,8.5-3.1,12.7c-0.5,2.1-1.2,4.3-0.8,6.3c0.4,2,2,3.5,4,3.8l-0.5,0.3c1-3.1,2-6.1,3-9.2
		c0.5-1.5,1-3,1.6-4.6s1.1-3,1.7-4.5c-0.4,1.6-0.8,3.1-1.2,4.7s-0.9,3.1-1.3,4.6c-0.9,3.1-1.8,6.1-2.8,9.2l-0.1,0.4l-0.4,0
		c-1.2-0.2-2.3-0.7-3.2-1.5c-0.9-0.8-1.5-1.9-1.6-3.1c-0.1-1.1-0.1-2.3,0.2-3.4c0.2-1.1,0.5-2.1,0.8-3.2
		C532.5,351.7,533.8,347.5,535.3,343.4z"/>
	<path class="st6" d="M524.5,358.8c0.1,0.6,0.3,1.1,0.5,1.6c0.2,0.5,0.6,1,1,1.3c0.4,0.4,0.9,0.7,1.4,0.9c0.5,0.2,1,0.3,1.6,0.4
		l-0.4,0.3c0.9-3.1,1.8-6.2,2.8-9.2c0.5-1.5,1-3,1.6-4.5s1.1-3,1.8-4.5c-0.3,1.6-0.7,3.1-1.2,4.7s-0.8,3.1-1.3,4.6
		c-0.9,3.1-1.9,6.1-3,9.2l-0.1,0.3l-0.3,0c-0.6-0.1-1.2-0.3-1.8-0.6c-0.6-0.3-1-0.7-1.5-1.1c-0.4-0.5-0.7-1-0.9-1.6
		C524.5,360,524.4,359.4,524.5,358.8z"/>
	<path class="st6" d="M527.2,346c0.1,0.9,0,1.9-0.2,2.8c-0.2,0.9-0.6,1.7-1.2,2.5C525.6,349.4,526.1,347.5,527.2,346L527.2,346z"/>
	<rect x="382.2" y="481.7" class="st1" width="49.9" height="11.3"/>
	<polygon class="st2" points="407.3,493.1 236.4,493.1 223,395.5 393.9,395.5 	"/>
	
		<ellipse transform="matrix(0.6733 -0.7394 0.7394 0.6733 -225.5401 378.1935)" class="st1" cx="315.2" cy="444.3" rx="8.9" ry="10.7"/>
	<polygon class="st8" points="228.3,343.8 187.4,343.8 187.4,372.2 201.7,372.2 207.9,382.9 214.1,372.2 228.3,372.2 	"/>
	<polygon class="st8" points="119.5,186.2 78.6,186.2 78.6,214.6 92.8,214.6 99,225.4 105.2,214.6 119.5,214.6 	"/>
	<polygon class="st3" points="221.7,184.4 180.8,184.4 180.8,212.8 195.1,212.8 201.3,223.6 207.5,212.8 221.7,212.8 	"/>
	<polygon class="st3" points="174.9,279.3 134,279.3 134,307.7 148.2,307.7 154.5,318.5 160.7,307.7 174.9,307.7 	"/>
</g>
</svg>
