<svg id="Layer_1" data-name="Layer 1" xmlns="http://www.w3.org/2000/svg" xmlns:xlink="http://www.w3.org/1999/xlink" width="500" height="425.68" viewBox="0 0 500 425.68"><defs><linearGradient id="linear-gradient" x1="195.92" y1="1.5" x2="292.72" y2="422.21" gradientUnits="userSpaceOnUse"><stop offset="0.31" stop-color="#fff" stop-opacity="0"/><stop offset="1" stop-color="#e95c00"/></linearGradient></defs><g opacity="0.37"><path d="M218.77,412.41,18.57,296.83a9.28,9.28,0,0,1,0-16.08l19.87-11.47v-8.69L265.51,138.18a9.27,9.27,0,0,1,9.28,0L480.18,242.57v14.2l6,3.44a9.28,9.28,0,0,1,0,16.08L250.39,412.41A31.61,31.61,0,0,1,218.77,412.41Z" fill="#a2a4b3"/></g><path d="M243.13,338.69v72.25A29.19,29.19,0,0,1,228.51,407L44.88,301.73a12.82,12.82,0,0,1-6.44-11.12V263.1a10.19,10.19,0,0,1,1.6-5.5l.45-.71Z" fill="none" stroke="#000" stroke-miterlimit="10" stroke-width="1.31"/><path d="M480.19,273.65a8.5,8.5,0,0,1-4.3,7.44L257.75,407a29.35,29.35,0,0,1-14.49,3.92l-.13,0V338.69L422,235.1l56.06,5.16a2.32,2.32,0,0,1,2.11,2.31v31.08Z" fill="none" stroke="#000" stroke-miterlimit="10" stroke-width="1.31"/><path d="M228.5,373.75,43.28,266.81a8.59,8.59,0,0,1,0-14.87L271.75,120a8.61,8.61,0,0,1,8.59,0L475.89,232.94a8.58,8.58,0,0,1,0,14.87L257.76,373.75A29.24,29.24,0,0,1,228.5,373.75Z" fill="#202124"/><path d="M167,298.24l185.66-103.6c4.3-2.48,3.76-6.81-1.2-9.68h0c-5-2.86-12.46-3.17-16.76-.69L149,287.87c-4.29,2.48-3.76,6.81,1.2,9.68h0C155.18,300.41,162.68,300.72,167,298.24Z" fill="#e95c00"/><path d="M147.35,295.19a4.44,4.44,0,0,1-.93-4.63Z" fill="#e95c00"/><path d="M351.43,191c-5-2.87-12.46-3.18-16.76-.7L149,293.89a7.34,7.34,0,0,0-1.66,1.31,10.34,10.34,0,0,0,2.86,2.35h0c5,2.86,12.47,3.17,16.76.69l185.66-103.6a6.64,6.64,0,0,0,1.66-1.31A10,10,0,0,0,351.43,191Z" fill="#202124"/><path d="M181.91,164.8q0-25.59,2.83-43.89,4-26.58,12.39-46.23a131.3,131.3,0,0,1,20.41-33.8,99.28,99.28,0,0,1,26.67-22.47q18.24-10.35,30.91-6.87c5.81,1.59,12.38,4.84,14.68,7.56C301.25,32.6,304.85,61.23,304.85,94q0,56.39-19.35,96.42-15.33,31.73-41.76,46.72c-10.86,6.16-15.41,13.23-23.11,12.42s-18.7-8.54-23.5-14.45-8.53-14.69-11.21-26.36S181.91,182.45,181.91,164.8Zm29.73-19a260.1,260.1,0,0,0,1.3,29.61q2,14.7,6.08,22.45t10.26,9.35q6.19,1.59,13.87-2.77,13.1-7.42,21.35-26.07,10.62-24.28,10.62-67.73,0-44.58-10.38-56.53-8.39-9.48-21.24-2.19-13.09,7.44-21,25.58Q211.64,102.34,211.64,145.77Z" fill="#e95c00"/><path d="M190.89,169.93q0-25.6,2.84-43.9,4-26.58,12.38-46.22A131.48,131.48,0,0,1,226.52,46a99.8,99.8,0,0,1,26.67-22.47Q284,6.06,298.91,28t14.92,71.15q0,56.39-19.35,96.42-15.33,31.71-41.76,46.71-16.29,9.24-27.85,8a26.81,26.81,0,0,1-18.76-10.07q-7.2-8.85-11.21-26.36T190.89,169.93Zm29.74-19a263.21,263.21,0,0,0,1.29,29.62q2,14.69,6.08,22.44t10.26,9.35q6.19,1.59,13.87-2.76,13.1-7.44,21.35-26.08,10.62-24.28,10.62-67.73,0-44.58-10.38-56.53-8.39-9.48-21.24-2.19-13.09,7.44-21,25.59Q220.62,107.46,220.63,150.89Z" fill="#f27422"/><path d="M313.83,75l41.7,115.43v0c0,1.56-1,3.06-2.9,4.18L167,298.24a14.85,14.85,0,0,1-7.27,1.67,19.45,19.45,0,0,1-9.49-2.37,10.52,10.52,0,0,1-2.33-1.76l-.53-.59-.93-4.63,23.87-128.69Z" fill="url(#linear-gradient)"/></svg>