<svg id="Layer_1" data-name="Layer 1" xmlns="http://www.w3.org/2000/svg" width="446.58" height="237.16" viewBox="0 0 446.58 237.16"><path d="M302.07,181.32c-1.47.31-2.94.69-4.4,1.13-17.37,5.15-30.72,17.07-37.38,31.43l8.54,2.94c5.74-11.72,16.93-21.45,31.41-25.75,1.12-.33,2.22-.62,3.34-.87Z" fill="#202124"/><path d="M298.94,162.94c-2.19.47-4.37,1-6.56,1.68-23.68,7-41.89,23.21-51,42.72l8.53,2.95c8.21-16.86,24.26-30.87,45-37,1.84-.55,3.68-1,5.52-1.43Z" fill="#202124"/><path d="M295.6,143.22c-3,.62-5.94,1.36-8.91,2.25-30.45,9-53.87,29.81-65.65,54.85l8.54,2.94c10.86-22.39,32.13-41,59.67-49.16,2.61-.78,5.23-1.44,7.86-2Z" fill="#202124"/><path d="M96.12,136.38a53,53,0,0,1-16.34-14.23,54.14,54.14,0,0,0-9,2.87,61.88,61.88,0,0,0,20.9,19.2,62.75,62.75,0,0,0,17.55,6.71l2.4-8.68A53.9,53.9,0,0,1,96.12,136.38Z" fill="#202124"/><path d="M87,152.57a75.65,75.65,0,0,1-25.11-22.76,48.76,48.76,0,0,0-7,5.72,84.76,84.76,0,0,0,27.66,24.88,86.15,86.15,0,0,0,21.68,8.65l2.41-8.69A76.35,76.35,0,0,1,87,152.57Z" fill="#202124"/><path d="M77.14,170a100.89,100.89,0,0,1-29.47-25.06,42.47,42.47,0,0,0-4,9.3,111.77,111.77,0,0,0,55.14,34.28l2.41-8.68A102,102,0,0,1,77.14,170Z" fill="#202124"/><path d="M165.67,50.16a60.15,60.15,0,0,0-41.76,16.33l6.89,5.84a51.34,51.34,0,0,1,34.87-13.17A53.24,53.24,0,0,1,185.75,63l4.53-7.86A62.15,62.15,0,0,0,165.67,50.16Z" fill="#202124"/><path d="M165.67,31.56c-22.41,0-42.64,8.5-56.88,22.1l6.89,5.85c12.58-11.67,30.34-18.95,50-18.95a76.29,76.29,0,0,1,29.62,5.9l4.52-7.84A85,85,0,0,0,165.67,31.56Z" fill="#202124"/><path d="M165.67,11.58c-28.79,0-54.79,10.89-73.13,28.3l6.9,5.85c16.67-15.49,40.2-25.15,66.23-25.15a101,101,0,0,1,39.87,8.09l4.51-7.83A109.51,109.51,0,0,0,165.67,11.58Z" fill="#202124"/><path d="M39.21,65.24c-.8-.89-1.63-1.74-2.47-2.57l-6.08,6.66c.64.62,1.26,1.28,1.87,2A53.82,53.82,0,0,1,42,85.83q3.91-2.16,8-4A62.34,62.34,0,0,0,39.21,65.24Z" fill="#202124"/><path d="M53,52.77c-1.21-1.34-2.44-2.62-3.71-3.86l-6.08,6.66c1.07,1,2.1,2.12,3.12,3.24A76.78,76.78,0,0,1,59.11,78.08q4.23-1.53,8.62-2.76A85.57,85.57,0,0,0,53,52.77Z" fill="#202124"/><path d="M67.82,39.37c-1.64-1.81-3.33-3.56-5.06-5.23l-6.07,6.65Q59,43,61.14,45.41A101.88,101.88,0,0,1,78.89,72.72c3-.57,6.07-1,9.19-1.37A110.9,110.9,0,0,0,67.82,39.37Z" fill="#202124"/><path d="M25.63,149.9l8.63,2.54.1-.37c9.22-32.31,46.51-50.1,83.12-39.64.68.19,1.35.39,2,.6l2.55-8.63q-1-.33-2.1-.63C78.57,92,36.29,112.51,25.71,149.6,25.68,149.7,25.65,149.8,25.63,149.9Z" fill="#202124"/><path d="M12.71,146.11l0-.21C25,103,74.45,79.36,123,93.21c.74.21,1.47.43,2.2.66l2.55-8.63c-.75-.24-1.51-.46-2.28-.68C72.15,69.35,17.72,95.76,4.11,143.43l0,.14Z" fill="#202124"/><polygon points="184.4 78 224.03 6.86 317.16 9.63 325.81 25.01 284.82 101.01 192.14 92.6 184.4 78" fill="#e95c00"/><rect x="206.34" y="38.76" width="122.59" height="80.01" transform="translate(-6.75 129.25) rotate(-26.82)" fill="#202124"/><rect x="301.1" y="90.08" width="133.83" height="87.35" transform="translate(-17.58 65.61) rotate(-9.95)" fill="#fafafa" stroke="#000" stroke-linecap="round" stroke-linejoin="round" stroke-width="0.91"/><polygon points="296.39 112.73 368.01 133.75 428.2 89.6 426.38 79.17 294.56 102.3 296.39 112.73" fill="#fafafa" stroke="#000" stroke-linecap="round" stroke-linejoin="round" stroke-width="0.91"/><polygon points="367.03 106.51 233.09 173.59 192.14 92.6 284.82 101.01 325.81 25.01 367.03 106.51" fill="#fafafa" stroke="#000" stroke-linecap="round" stroke-linejoin="round" stroke-width="0.89"/><text transform="matrix(0.9, -0.44, 0.41, 0.91, 227.95, 93.37)" font-size="38.73" fill="#fff" font-family="MyriadPro-Bold, Myriad Pro" font-weight="700">N<tspan x="26.72" y="0" letter-spacing="0.01em">E</tspan><tspan x="47.68" y="0">W</tspan></text><rect x="117" y="104.9" width="165.68" height="108.13" transform="translate(43.84 -43.2) rotate(13.84)" fill="#fafafa" stroke="#000" stroke-linecap="round" stroke-linejoin="round" stroke-width="0.89"/><polygon points="132.34 86.65 199.84 158.97 293.21 126.29 293.21 126.29 132.34 86.65 132.34 86.65" fill="#fafafa" stroke="#000" stroke-linecap="round" stroke-linejoin="round" stroke-width="0.89"/><polygon points="110.62 145.92 120.46 109.77 98.55 123.17 110.62 145.92" fill="#202124"/><path d="M180.47,71.3l-11,18.79L143.6,83.65l-5.68-4.87a43.65,43.65,0,0,1,28-9.85A45.21,45.21,0,0,1,180.47,71.3Z" fill="#202124"/><path d="M87.84,44l-5.29,5A105.77,105.77,0,0,1,94.42,70.35s19.36,1.55,34.06,9.3Z" fill="#202124"/></svg>